<svg width="46" height="45" viewBox="0 0 46 45" fill="none" xmlns="http://www.w3.org/2000/svg">
<path fill-rule="evenodd" clip-rule="evenodd" d="M12.0092 12.0532H25.1023L23.2473 15.2662C23.0519 15.6046 22.9164 15.966 22.8402 16.3379H18.3609C18.0662 15.5067 17.2724 14.9097 16.3414 14.9097C15.1601 14.9097 14.1991 15.8707 14.1991 17.052C14.1991 17.983 14.7961 18.7767 15.6273 19.0715V19.9136L12.7276 21.1562C12.465 21.2688 12.2948 21.527 12.2948 21.8126V23.2408C12.2948 23.6352 12.6145 23.9549 13.0089 23.9549C13.4033 23.9549 13.723 23.6352 13.723 23.2408V22.2835L16.3414 21.1613L18.9598 22.2835V23.2408C18.9598 23.6352 19.2796 23.9549 19.674 23.9549C20.0683 23.9549 20.3881 23.6352 20.3881 23.2408V21.8126C20.3881 21.527 20.2178 21.2687 19.9553 21.1562L17.0555 19.9135V19.0714C17.6632 18.8559 18.1454 18.3737 18.3609 17.766H22.8417C22.8561 17.836 22.8719 17.9059 22.8905 17.9755C23.1374 18.8967 23.7282 19.6667 24.5541 20.1436C25.1151 20.4675 25.728 20.6213 26.3335 20.6212C27.5683 20.6211 28.7711 19.9808 29.4316 18.8367L33.3482 12.0532H34.9559C35.3503 12.0532 35.67 11.7335 35.67 11.3391C35.67 10.9447 35.3503 10.625 34.9559 10.625H12.0092C11.6148 10.625 11.295 10.9447 11.295 11.3391C11.295 11.7335 11.6148 12.0532 12.0092 12.0532ZM16.3414 17.766C15.9477 17.766 15.6273 17.4457 15.6273 17.0519C15.6273 16.6581 15.9477 16.3378 16.3414 16.3378C16.7352 16.3378 17.0555 16.6581 17.0555 17.0519C17.0555 17.4457 16.7352 17.766 16.3414 17.766ZM28.1948 18.1226C27.6041 19.1455 26.2913 19.4973 25.2683 18.9067C24.2453 18.3161 23.8935 17.0033 24.4841 15.9803L26.7515 12.0532H31.699L28.1948 18.1226ZM33.4801 29.8074V26.1926C33.4801 25.7982 33.1604 25.4785 32.766 25.4785H28.4813C28.0869 25.4785 27.7672 25.7982 27.7672 26.1926V29.7632H26.339V26.1926C26.339 25.7982 26.0193 25.4785 25.6249 25.4785H21.3402C20.9458 25.4785 20.6261 25.7982 20.6261 26.1926V29.7632H19.1979V26.1926C19.1979 25.7982 18.8781 25.4785 18.4838 25.4785H14.1991C13.8047 25.4785 13.485 25.7982 13.485 26.1926V29.8074C12.2678 30.032 11.3427 31.1004 11.3427 32.3816C11.3427 33.8254 12.5173 35 13.9611 35H33.004C34.4478 35 35.6224 33.8254 35.6224 32.3816C35.6224 31.1004 34.6973 30.032 33.4801 29.8074ZM21.1514 31.1914C20.9683 31.5488 20.8641 31.9531 20.8641 32.3816C20.8641 32.8101 20.9683 33.2144 21.1514 33.5718H16.2922C16.4754 33.2144 16.5795 32.8101 16.5795 32.3816C16.5795 31.9531 16.4754 31.5488 16.2922 31.1914H21.1514ZM22.2924 32.3816C22.2924 31.7253 22.8263 31.1914 23.4825 31.1914C24.1388 31.1914 24.6727 31.7253 24.6727 32.3816C24.6727 33.0379 24.1388 33.5718 23.4825 33.5718C22.8263 33.5718 22.2924 33.0379 22.2924 32.3816ZM25.8136 31.1914H30.6729C30.4897 31.5488 30.3856 31.9531 30.3856 32.3816C30.3856 32.8101 30.4897 33.2144 30.6729 33.5718H25.8136C25.9968 33.2144 26.101 32.8101 26.101 32.3816C26.101 31.9531 25.9968 31.5488 25.8136 31.1914ZM29.1954 26.9067H32.0519V29.7632H29.1954V26.9067ZM22.0543 26.9067H24.9108V29.7632H22.0543V26.9067ZM14.9132 26.9067H17.7697V29.7632H14.9132V26.9067ZM12.7709 32.3816C12.7709 31.7253 13.3048 31.1914 13.9611 31.1914C14.6173 31.1914 15.1512 31.7253 15.1512 32.3816C15.1512 33.0379 14.6173 33.5718 13.9611 33.5718C13.3048 33.5718 12.7709 33.0379 12.7709 32.3816ZM33.004 33.5718C32.3478 33.5718 31.8138 33.0379 31.8138 32.3816C31.8138 31.7253 32.3478 31.1914 33.004 31.1914C33.6603 31.1914 34.1942 31.7253 34.1942 32.3816C34.1942 33.0379 33.6603 33.5718 33.004 33.5718ZM27.0531 17.0518C27.0531 17.4462 26.7334 17.7659 26.339 17.7659C25.9446 17.7659 25.6249 17.4462 25.6249 17.0518C25.6249 16.6574 25.9446 16.3376 26.339 16.3376C26.7334 16.3376 27.0531 16.6574 27.0531 17.0518Z" fill="#EDC431"/>
</svg>
