<svg id="Слой_1" data-name="Слой 1" xmlns="http://www.w3.org/2000/svg" viewBox="0 0 368.8 321.9"><defs><style>.cls-1{fill:#3e1c4e;}.cls-2{fill:#bf9f29;}.cls-3{fill:#edc431;}.cls-4{fill:#9f811e;}</style></defs><title>viewsta_</title><path class="cls-1" d="M131.5,321.9q-20.1,0-29.7-17.4L3.7,146.4A31.4,31.4,0,0,1,1.5,122a30.5,30.5,0,0,1,15.7-18.7,30.6,30.6,0,0,1,24.4-2.1A30.8,30.8,0,0,1,60.4,117l71.1,104.1L227.1,30.3a31,31,0,0,1,18.7-15.9,30.5,30.5,0,0,1,24.4,2.1,30.6,30.6,0,0,1,15.7,18.8,30.6,30.6,0,0,1-2.2,24.4L161.2,304.5Q151.6,321.9,131.5,321.9Z"/><path class="cls-2" d="M355.8,13.1A43,43,0,0,0,324.2,0a41.9,41.9,0,0,0-23.5,6.7,64,64,0,0,1,9.9,19.5A60.9,60.9,0,0,1,306.2,74l-4.6,9.3a45.2,45.2,0,0,0,54.2-7,42.9,42.9,0,0,0,13-31.6A42.9,42.9,0,0,0,355.8,13.1Z"/><path class="cls-3" d="M346.3,13.1A43.4,43.4,0,0,0,314.6,0a42.2,42.2,0,0,0-23.5,6.7A59.8,59.8,0,0,1,301,26.2,60.8,60.8,0,0,1,296.7,74l-4.6,9.3a45.2,45.2,0,0,0,54.2-7,42.9,42.9,0,0,0,13-31.6A42.9,42.9,0,0,0,346.3,13.1Z"/><path class="cls-2" d="M320.7,57.8a2,2,0,0,0,.2,1.1l-4,2.1a3.7,3.7,0,0,1-5.4-3.2V31.4a3.7,3.7,0,0,1,5.4-3.2l4,2.1a2,2,0,0,0-.2,1.1Z"/><path class="cls-2" d="M341.6,47.9l-20.7,11a2,2,0,0,1-.2-1.1V31.4a2,2,0,0,1,.2-1.1l20.7,11.1A3.8,3.8,0,0,1,341.6,47.9Z"/><path class="cls-4" d="M341.6,47.9l-20.7,11a2,2,0,0,1-.2-1.1V31.4a2,2,0,0,1,.2-1.1l20.7,11.1A3.8,3.8,0,0,1,341.6,47.9Z"/></svg>