<svg width="132" height="78" viewBox="0 0 132 78" fill="none" xmlns="http://www.w3.org/2000/svg">
<path d="M120.643 12.4334C121.158 12.6316 121.737 12.3743 121.935 11.8588C122.133 11.3433 121.876 10.7648 121.36 10.5666L120.643 12.4334ZM57.5016 20.9997L57.0059 20.1312L57.5016 20.9997ZM22.3171 73.7287C22.7198 74.1068 23.3526 74.0868 23.7306 73.6842L29.891 67.123C30.269 66.7203 30.2491 66.0875 29.8465 65.7094C29.4438 65.3314 28.811 65.3514 28.433 65.754L22.9571 71.5862L17.1249 66.1103C16.7222 65.7323 16.0894 65.7522 15.7114 66.1549C15.3333 66.5575 15.3533 67.1903 15.7559 67.5684L22.3171 73.7287ZM115.918 9.07897C115.377 8.96498 114.847 9.31064 114.733 9.85103C114.619 10.3914 114.964 10.9219 115.505 11.0359L115.918 9.07897ZM104.75 9.71385C105.302 9.73793 105.769 9.31016 105.793 8.75841C105.817 8.20664 105.389 7.73983 104.837 7.71575L104.75 9.71385ZM93.7127 8.03051C93.1631 8.08469 92.7614 8.57415 92.8156 9.12378C92.8698 9.6734 93.3593 10.075 93.9089 10.0209L93.7127 8.03051ZM83.1931 11.8056C83.7308 11.6795 84.0645 11.1414 83.9384 10.6037C83.8123 10.066 83.2742 9.73238 82.7365 9.85848L83.1931 11.8056ZM72.0951 13.0643C71.577 13.2554 71.3118 13.8304 71.5029 14.3485C71.694 14.8667 72.2689 15.1319 72.7871 14.9408L72.0951 13.0643ZM62.8107 19.2843C63.3041 19.0361 63.5028 18.4349 63.2546 17.9415C63.0063 17.4482 62.4052 17.2495 61.9118 17.4977L62.8107 19.2843ZM52.304 23.0142C51.8427 23.3179 51.7149 23.938 52.0186 24.3993C52.3223 24.8606 52.9424 24.9884 53.4037 24.6847L52.304 23.0142ZM44.8806 31.181C45.2945 30.8153 45.3336 30.1834 44.968 29.7694C44.6023 29.3555 43.9704 29.3164 43.5565 29.6821L44.8806 31.181ZM35.8971 37.5974C35.5464 38.0241 35.6079 38.6542 36.0345 39.005C36.4611 39.3557 37.0913 39.2942 37.442 38.8676L35.8971 37.5974ZM31.3818 47.6702C31.6543 47.1899 31.4859 46.5795 31.0055 46.3069C30.5252 46.0344 29.9149 46.2028 29.6423 46.6832L31.3818 47.6702ZM25.0736 56.7275C24.8912 57.2488 25.166 57.8192 25.6873 58.0016C26.2086 58.184 26.779 57.9092 26.9614 57.3879L25.0736 56.7275ZM24.4088 67.733C24.4868 67.1862 24.1069 66.6797 23.5602 66.6016C23.0134 66.5236 22.5069 66.9035 22.4289 67.4502L24.4088 67.733ZM121.001 11.5C121.36 10.5666 121.36 10.5665 121.36 10.5665C121.36 10.5665 121.36 10.5664 121.36 10.5664C121.359 10.5663 121.359 10.5662 121.359 10.5661C121.358 10.5659 121.358 10.5656 121.357 10.5653C121.355 10.5647 121.353 10.5639 121.351 10.563C121.346 10.5611 121.339 10.5585 121.33 10.5552C121.313 10.5487 121.288 10.5396 121.256 10.528C121.193 10.5048 121.1 10.4717 120.98 10.4301C120.738 10.3471 120.384 10.2302 119.923 10.091C119.002 9.81259 117.651 9.4447 115.918 9.07897L115.505 11.0359C117.179 11.389 118.474 11.7424 119.345 12.0056C119.781 12.1372 120.11 12.2461 120.329 12.3212C120.438 12.3588 120.519 12.3878 120.571 12.407C120.598 12.4166 120.617 12.4237 120.629 12.4282C120.635 12.4304 120.639 12.432 120.641 12.4328C120.642 12.4333 120.643 12.4335 120.643 12.4336C120.643 12.4337 120.643 12.4337 120.643 12.4337C120.643 12.4336 120.643 12.4336 120.643 12.4336C120.643 12.4335 120.643 12.4335 120.643 12.4335C120.643 12.4334 120.643 12.4334 121.001 11.5ZM104.837 7.71575C101.527 7.5713 97.7957 7.6281 93.7127 8.03051L93.9089 10.0209C97.8916 9.62833 101.528 9.57325 104.75 9.71385L104.837 7.71575ZM82.7365 9.85848C79.3369 10.6557 75.7804 11.7053 72.0951 13.0643L72.7871 14.9408C76.3939 13.6107 79.8718 12.5846 83.1931 11.8056L82.7365 9.85848ZM61.9118 17.4977C60.2935 18.3119 58.6575 19.1884 57.0059 20.1312L57.9973 21.8682C59.6187 20.9427 61.2238 20.0828 62.8107 19.2843L61.9118 17.4977ZM57.0059 20.1312C55.3632 21.0689 53.7971 22.0313 52.304 23.0142L53.4037 24.6847C54.8611 23.7253 56.391 22.785 57.9973 21.8682L57.0059 20.1312ZM43.5565 29.6821C40.6238 32.2728 38.0885 34.932 35.8971 37.5974L37.442 38.8676C39.567 36.283 42.0286 33.7004 44.8806 31.181L43.5565 29.6821ZM29.6423 46.6832C27.6424 50.2076 26.1649 53.608 25.0736 56.7275L26.9614 57.3879C28.0165 54.3719 29.4458 51.0819 31.3818 47.6702L29.6423 46.6832ZM22.4289 67.4502C22.1833 69.1698 22.0763 70.5533 22.0308 71.5125C22.0081 71.9921 22.0007 72.3659 21.9991 72.6226C21.9983 72.751 21.999 72.8501 21.9999 72.9187C22.0003 72.953 22.0008 72.9796 22.0013 72.9984C22.0015 73.0078 22.0017 73.0153 22.0018 73.0207C22.0019 73.0235 22.002 73.0257 22.002 73.0275C22.002 73.0283 22.0021 73.0291 22.0021 73.0297C22.0021 73.03 22.0021 73.0303 22.0021 73.0306C22.0021 73.0307 22.0021 73.0308 22.0021 73.0309C22.0021 73.0311 22.0021 73.0312 23.0016 72.9997C24.0011 72.9682 24.0011 72.9684 24.0011 72.9685C24.0011 72.9685 24.0011 72.9686 24.0011 72.9687C24.0011 72.9688 24.0011 72.9689 24.0011 72.969C24.0012 72.9691 24.0011 72.9691 24.0011 72.969C24.0011 72.9687 24.0011 72.968 24.0011 72.9668C24.001 72.9644 24.0009 72.96 24.0008 72.9536C24.0005 72.941 24.0001 72.9205 23.9997 72.8925C23.999 72.8365 23.9984 72.7502 23.9991 72.6349C24.0005 72.4044 24.0072 72.0582 24.0286 71.6072C24.0714 70.7052 24.1729 69.3846 24.4088 67.733L22.4289 67.4502ZM120.284 13.3668C121.315 13.7632 122.472 13.2487 122.868 12.2177C123.265 11.1867 122.75 10.0296 121.719 9.6332L120.284 13.3668ZM57.5016 20.9997L56.5101 19.2627L57.5016 20.9997ZM21.6326 74.4578C22.4379 75.2138 23.7036 75.1739 24.4597 74.3687L36.7804 61.2462C37.5365 60.4409 37.4966 59.1752 36.6913 58.4192C35.8861 57.6631 34.6204 57.703 33.8643 58.5083L22.9125 70.1727L11.2481 59.2209C10.4428 58.4649 9.17714 58.5048 8.42108 59.31C7.66502 60.1153 7.70491 61.381 8.51016 62.137L21.6326 74.4578ZM116.124 8.10051C115.043 7.87251 113.982 8.56384 113.754 9.64462C113.526 10.7254 114.218 11.7864 115.298 12.0144L116.124 8.10051ZM104.706 10.7129C105.81 10.7611 106.744 9.90553 106.792 8.80201C106.84 7.69849 105.984 6.76487 104.881 6.7167L104.706 10.7129ZM93.6146 7.03534C92.5154 7.14368 91.7121 8.12262 91.8204 9.22187C91.9288 10.3211 92.9077 11.1244 94.007 11.016L93.6146 7.03534ZM83.4215 12.7792C84.4969 12.527 85.1642 11.4508 84.912 10.3754C84.6598 9.30003 83.5836 8.63269 82.5082 8.88489L83.4215 12.7792ZM71.7491 12.1261C70.7128 12.5083 70.1825 13.6582 70.5647 14.6945C70.9468 15.7309 72.0968 16.2612 73.1331 15.879L71.7491 12.1261ZM63.2602 20.1776C64.2469 19.6811 64.6443 18.4788 64.1479 17.4921C63.6514 16.5054 62.449 16.1079 61.4623 16.6044L63.2602 20.1776ZM51.7541 22.179C50.8315 22.7863 50.576 24.0266 51.1833 24.9492C51.7907 25.8718 53.031 26.1273 53.9536 25.52L51.7541 22.179ZM45.5427 31.9304C46.3705 31.1991 46.4487 29.9352 45.7174 29.1074C44.9861 28.2796 43.7222 28.2013 42.8944 28.9326L45.5427 31.9304ZM35.1247 36.9624C34.4232 37.8156 34.5462 39.0759 35.3994 39.7774C36.2527 40.4789 37.513 40.3559 38.2145 39.5027L35.1247 36.9624ZM32.2515 48.1637C32.7966 47.203 32.4598 45.9823 31.4991 45.4372C30.5384 44.8921 29.3177 45.229 28.7726 46.1896L32.2515 48.1637ZM24.1297 56.3973C23.7649 57.4399 24.3144 58.5808 25.3571 58.9455C26.3997 59.3102 27.5406 58.7607 27.9053 57.7181L24.1297 56.3973ZM25.3987 67.8743C25.5549 66.7808 24.795 65.7678 23.7015 65.6117C22.6081 65.4555 21.595 66.2154 21.4389 67.3089L25.3987 67.8743ZM121.001 11.5C121.719 9.6332 121.719 9.6331 121.719 9.633C121.718 9.63296 121.718 9.63286 121.718 9.63278C121.718 9.63263 121.717 9.63247 121.717 9.6323C121.716 9.63196 121.715 9.63157 121.714 9.63114C121.711 9.63028 121.709 9.62924 121.706 9.62804C121.699 9.62563 121.691 9.62253 121.681 9.61877C121.661 9.61126 121.634 9.6011 121.599 9.58848C121.53 9.56324 121.431 9.52813 121.305 9.4846C121.052 9.39753 120.686 9.27673 120.212 9.13371C119.265 8.84768 117.888 8.47253 116.124 8.10051L115.298 12.0144C116.943 12.3612 118.21 12.7073 119.056 12.9629C119.479 13.0906 119.797 13.1957 120.003 13.2668C120.106 13.3023 120.182 13.3294 120.229 13.3465C120.252 13.3551 120.269 13.3612 120.278 13.3646C120.282 13.3663 120.285 13.3674 120.286 13.3678C120.287 13.368 120.287 13.368 120.286 13.3678C120.286 13.3677 120.286 13.3676 120.285 13.3674C120.285 13.3674 120.285 13.3673 120.285 13.3672C120.285 13.3671 120.284 13.367 120.284 13.367C120.284 13.3669 120.284 13.3668 121.001 11.5ZM104.881 6.7167C101.527 6.57032 97.7477 6.62798 93.6146 7.03534L94.007 11.016C97.9396 10.6284 101.529 10.5742 104.706 10.7129L104.881 6.7167ZM82.5082 8.88489C79.0695 9.6913 75.4736 10.7526 71.7491 12.1261L73.1331 15.879C76.7006 14.5634 80.1392 13.549 83.4215 12.7792L82.5082 8.88489ZM61.4623 16.6044C59.8284 17.4265 58.177 18.3113 56.5101 19.2627L58.4931 22.7366C60.0992 21.8198 61.6889 20.9682 63.2602 20.1776L61.4623 16.6044ZM56.5101 19.2627C54.8492 20.2108 53.2651 21.1842 51.7541 22.179L53.9536 25.52C55.393 24.5723 56.905 23.6431 58.4931 22.7366L56.5101 19.2627ZM42.8944 28.9326C39.9214 31.5589 37.3493 34.2565 35.1247 36.9624L38.2145 39.5027C40.3062 36.9585 42.731 34.4142 45.5427 31.9304L42.8944 28.9326ZM28.7726 46.1896C26.7407 49.7704 25.2391 53.226 24.1297 56.3973L27.9053 57.7181C28.9423 54.7539 30.3475 51.5191 32.2515 48.1637L28.7726 46.1896ZM21.4389 67.3089C21.1885 69.0623 21.0788 70.4774 21.0319 71.4651C21.0085 71.9591 21.0008 72.3466 20.9991 72.6164C20.9983 72.7514 20.999 72.8569 21 72.9318C21.0005 72.9692 21.001 72.9989 21.0015 73.0208C21.0018 73.0317 21.002 73.0407 21.0022 73.0477C21.0023 73.0512 21.0024 73.0542 21.0024 73.0567C21.0025 73.058 21.0025 73.0591 21.0025 73.0601C21.0025 73.0606 21.0026 73.0611 21.0026 73.0615C21.0026 73.0617 21.0026 73.062 21.0026 73.0621C21.0026 73.0624 21.0026 73.0627 23.0016 72.9997C25.0006 72.9367 25.0006 72.937 25.0006 72.9373C25.0006 72.9373 25.0007 72.9376 25.0007 72.9378C25.0007 72.9381 25.0007 72.9384 25.0007 72.9386C25.0007 72.9391 25.0007 72.9395 25.0007 72.9397C25.0007 72.9403 25.0007 72.9403 25.0007 72.9398C25.0007 72.9389 25.0006 72.936 25.0005 72.9312C25.0003 72.9216 25 72.9043 24.9996 72.8794C24.999 72.8297 24.9984 72.7498 24.9991 72.6411C25.0004 72.4237 25.0067 72.0912 25.0275 71.6546C25.0689 70.7811 25.1677 69.4921 25.3987 67.8743L21.4389 67.3089Z" fill="#EDC431"/>
</svg>
