<svg width="46" height="45" viewBox="0 0 46 45" fill="none" xmlns="http://www.w3.org/2000/svg">
<path fill-rule="evenodd" clip-rule="evenodd" d="M34.7346 10.4533C34.9121 10.4613 35.0763 10.5508 35.1806 10.6963C35.3132 10.8199 35.3773 11.0016 35.3522 11.1822L34.9061 17.0489C34.8707 17.405 34.5736 17.6756 34.2199 17.6738H34.1856C33.8146 17.6379 33.5319 17.3218 33.5336 16.9448L33.8769 12.6328L25.0929 19.5483C24.8422 19.7513 24.4858 19.7513 24.2351 19.5483L18.0932 14.6536L12.1572 20.4162C12.0305 20.547 11.8579 20.6219 11.6769 20.6245C11.4765 20.6328 11.2846 20.5422 11.1622 20.3815C10.9099 20.1021 10.9252 19.6699 11.1965 19.4095L17.5785 13.2304C17.8268 12.998 18.2054 12.9832 18.4706 13.1957L24.6811 18.1251L32.8065 11.6942L28.3868 11.3905C28.0077 11.3618 27.7236 11.0276 27.752 10.6442C27.7804 10.2608 28.1107 9.97321 28.4897 10.002L34.7346 10.4533ZM29.8301 18.75H34.635C35.0341 18.75 35.3575 19.0569 35.3575 19.4353V33.6897C35.3575 34.0682 35.0341 34.375 34.635 34.375H29.8301C29.431 34.375 29.1075 34.0682 29.1075 33.6897V19.4353C29.1075 19.0568 29.431 18.75 29.8301 18.75ZM30.5526 33.0044H33.9125V20.1206H30.5526V33.0044ZM20.532 24.375H25.8081C26.2496 24.375 26.6075 24.6745 26.6075 25.0439V33.7061C26.6075 34.0755 26.2496 34.375 25.8081 34.375H20.532C20.0904 34.375 19.7325 34.0755 19.7325 33.7061V25.0439C19.7325 24.6745 20.0904 24.375 20.532 24.375ZM21.3314 33.0372H25.0087V25.7128H21.3314V33.0372ZM16.5823 26.875H12.2578C11.8987 26.875 11.6075 27.2074 11.6075 27.6176V33.6324C11.6075 34.0426 11.8987 34.375 12.2578 34.375H16.5823C16.9414 34.375 17.2325 34.0426 17.2325 33.6324V27.6176C17.2325 27.2075 16.9414 26.875 16.5823 26.875ZM15.932 32.8899H12.9081V28.3601H15.932V32.8899Z" fill="#EDC431"/>
</svg>
