<svg width="222" height="129" viewBox="0 0 222 129" fill="none" xmlns="http://www.w3.org/2000/svg">
    <path d="M13.0412 128.094C12.4554 128.68 11.5056 128.68 10.9199 128.094L1.37392 118.548C0.788132 117.962 0.788132 117.013 1.37392 116.427C1.9597 115.841 2.90945 115.841 3.49524 116.427L11.9805 124.912L20.4658 116.427C21.0516 115.841 22.0013 115.841 22.5871 116.427C23.1729 117.013 23.1729 117.962 22.5871 118.548L13.0412 128.094ZM221.981 3.03854H219.34V0.0385437H221.981V3.03854ZM214.058 3.03854H208.777V0.0385437H214.058V3.03854ZM203.495 3.03854H198.213V0.0385437H203.495V3.03854ZM192.932 3.03854H187.65V0.0385437H192.932V3.03854ZM182.369 3.03854H177.087V0.0385437H182.369V3.03854ZM171.806 3.03854H166.524V0.0385437H171.806V3.03854ZM161.242 3.03854H155.961V0.0385437H161.242V3.03854ZM150.679 3.03854H145.398V0.0385437H150.679V3.03854ZM140.116 3.03854H137.475V0.0385437H140.116V3.03854ZM137.475 3.03854C136.659 3.03854 135.844 3.04643 135.031 3.06214L134.973 0.0627021C135.806 0.0466208 136.639 0.0385437 137.475 0.0385437V3.03854ZM130.169 3.25019C128.542 3.34468 126.924 3.47053 125.315 3.62713L125.025 0.641236C126.673 0.480867 128.33 0.351998 129.995 0.255235L130.169 3.25019ZM120.475 4.19415C118.861 4.41538 117.258 4.66766 115.664 4.95036L115.14 1.9965C116.772 1.70693 118.415 1.44854 120.068 1.22195L120.475 4.19415ZM110.889 5.89508C109.3 6.24222 107.723 6.61983 106.157 7.02727L105.401 4.12396C107.005 3.70659 108.621 3.31978 110.249 2.9642L110.889 5.89508ZM101.469 8.34694C99.9114 8.81875 98.3671 9.32038 96.8364 9.85116L95.8535 7.01673C97.4216 6.473 99.0036 5.95914 100.599 5.47582L101.469 8.34694ZM92.2686 11.537C90.7549 12.1299 89.2558 12.7517 87.7718 13.4018L86.5681 10.6539C88.0882 9.988 89.6239 9.35104 91.1744 8.74367L92.2686 11.537ZM83.3525 15.4425C81.8905 16.1529 80.4445 16.8912 79.0152 17.6568L77.5988 15.0122C79.0627 14.2281 80.5438 13.4719 82.0413 12.7442L83.3525 15.4425ZM74.7682 20.0403C73.3672 20.8632 71.9838 21.7128 70.6186 22.5885L68.9989 20.0634C70.397 19.1665 71.8139 18.2963 73.2488 17.4535L74.7682 20.0403ZM66.5725 25.2974C65.2408 26.2272 63.9283 27.1825 62.6355 28.1626L60.8231 25.7719C62.147 24.7682 63.4912 23.7899 64.855 22.8376L66.5725 25.2974ZM58.8133 31.1798C57.5585 32.2107 56.3244 33.2658 55.1115 34.3444L53.1179 32.1026C54.36 30.9981 55.6238 29.9176 56.9088 28.8618L58.8133 31.1798ZM51.5363 37.6509C50.3662 38.7762 49.2182 39.9242 48.0929 41.0943L45.9306 39.0147C47.0829 37.8165 48.2585 36.6409 49.4567 35.4886L51.5363 37.6509ZM44.7864 44.6695C43.7078 45.8823 42.6527 47.1165 41.6218 48.3713L39.3038 46.4668C40.3596 45.1818 41.4401 43.918 42.5446 42.6759L44.7864 44.6695ZM38.6046 52.1935C37.6245 53.4863 36.6692 54.7988 35.7393 56.1305L33.2796 54.413C34.2319 53.0492 35.2102 51.705 36.2139 50.3811L38.6046 52.1935ZM33.0305 60.1766C32.1548 61.5418 31.3052 62.9252 30.4823 64.3262L27.8955 62.8068C28.7383 61.3719 29.6085 59.955 30.5054 58.5569L33.0305 60.1766ZM28.0988 68.5732C27.3332 70.0025 26.5949 71.4484 25.8845 72.9105L23.1862 71.5993C23.9139 70.1018 24.6701 68.6207 25.4542 67.1568L28.0988 68.5732ZM23.8438 77.3298C23.1937 78.8138 22.5719 80.3129 21.979 81.8266L19.1857 80.7324C19.793 79.1818 20.43 77.6462 21.0959 76.1261L23.8438 77.3298ZM20.2932 86.3944C19.7624 87.9251 19.2607 89.4694 18.7889 91.0267L15.9178 90.1568C16.4011 88.5616 16.915 86.9796 17.4587 85.4115L20.2932 86.3944ZM17.4693 95.715C17.0618 97.2807 16.6842 98.8584 16.3371 100.447L13.4062 99.8072C13.7618 98.1794 14.1486 96.5633 14.5659 94.9595L17.4693 95.715ZM15.3923 105.222C15.1096 106.816 14.8574 108.419 14.6361 110.033L11.6639 109.626C11.8905 107.973 12.1489 106.33 12.4385 104.698L15.3923 105.222ZM14.0691 114.873C13.9125 116.482 13.7867 118.1 13.6922 119.727L10.6972 119.553C10.794 117.887 10.9229 116.23 11.0832 114.583L14.0691 114.873ZM13.5041 124.589C13.4884 125.402 13.4805 126.217 13.4805 127.033H10.4805C10.4805 126.197 10.4886 125.363 10.5047 124.531L13.5041 124.589Z" fill="#EDC431"/>
</svg>
