<svg width="65" height="64" viewBox="0 0 65 64" fill="none" xmlns="http://www.w3.org/2000/svg">
    <path fill-rule="evenodd" clip-rule="evenodd" d="M22.2953 10.8801C22.2968 9.58456 23.3464 8.53498 24.642 8.53345H40.2864C41.582 8.53498 42.6315 9.58456 42.6331 10.8801V36.6934C42.6315 37.989 41.582 39.0386 40.2864 39.0401H24.642C23.3464 39.0386 22.2968 37.989 22.2953 36.6934V10.8801ZM40.2864 37.4757C40.7184 37.4753 41.0682 37.1254 41.0686 36.6934V31.2179H23.8597V36.6934C23.8601 37.1254 24.21 37.4753 24.642 37.4757H40.2864ZM41.0686 29.6535V10.8801C41.0682 10.4481 40.7184 10.0983 40.2864 10.0979H24.642C24.21 10.0983 23.8601 10.4481 23.8597 10.8801V29.6535H41.0686ZM50.4558 16.3556H44.1981V17.9201H50.4558C50.8878 17.9204 51.2377 18.2703 51.2381 18.7023V40.6045H13.6914V18.7023C13.6918 18.2703 14.0416 17.9204 14.4736 17.9201H20.7314V16.3556H14.4736C13.1781 16.3571 12.1285 17.4067 12.127 18.7023V47.6445C12.1285 48.9401 13.1781 49.9896 14.4736 49.9912H28.5536V53.9023H25.4247V55.4667H39.5047V53.9023H36.3758V49.9912H50.4558C51.7514 49.9896 52.801 48.9401 52.8025 47.6445V18.7023C52.801 17.4067 51.7514 16.3571 50.4558 16.3556ZM34.8114 53.9023H30.1181V49.9912H34.8114V53.9023ZM51.2381 47.6445C51.2377 48.0765 50.8878 48.4263 50.4558 48.4267H14.4736C14.0416 48.4263 13.6918 48.0765 13.6914 47.6445V42.1689H51.2381V47.6445ZM34.0292 45.2979C34.0292 46.1619 33.3287 46.8623 32.4647 46.8623C31.6008 46.8623 30.9003 46.1619 30.9003 45.2979C30.9003 44.4339 31.6008 43.7334 32.4647 43.7334C33.3287 43.7334 34.0292 44.4339 34.0292 45.2979ZM34.0292 34.3467C34.0292 35.2107 33.3287 35.9112 32.4647 35.9112C31.6008 35.9112 30.9003 35.2107 30.9003 34.3467C30.9003 33.4828 31.6008 32.7823 32.4647 32.7823C33.3287 32.7823 34.0292 33.4828 34.0292 34.3467ZM34.0292 11.6623H30.9003V13.2267H34.0292V11.6623Z" fill="#3E1C4E"/>
</svg>
