<svg width="219" height="66" viewBox="0 0 219 66" fill="none" xmlns="http://www.w3.org/2000/svg">
    <path d="M12.6022 65.5174C12.0403 66.1262 11.0913 66.1641 10.4826 65.6022L0.562729 56.4454C-0.0460052 55.8835 -0.0839539 54.9345 0.477951 54.3258C1.03986 53.7171 1.98885 53.6791 2.59758 54.241L11.4152 62.3804L19.5546 53.5627C20.1165 52.954 21.0655 52.916 21.6742 53.4779C22.2829 54.0399 22.3209 54.9888 21.759 55.5976L12.6022 65.5174ZM219 3.5H216.542V0.5H219V3.5ZM211.627 3.5H206.712V0.5H211.627V3.5ZM201.797 3.5H196.882V0.5H201.797V3.5ZM191.967 3.5H187.052V0.5H191.967V3.5ZM182.137 3.5H177.222V0.5H182.137V3.5ZM172.307 3.5H167.392V0.5H172.307V3.5ZM162.477 3.5H157.562V0.5H162.477V3.5ZM152.647 3.5H147.732V0.5H152.647V3.5ZM142.817 3.5H137.902V0.5H142.817V3.5ZM132.987 3.5H128.072V0.5H132.987V3.5ZM123.157 3.5H118.242V0.5H123.157V3.5ZM113.327 3.5H108.412V0.5H113.327V3.5ZM103.497 3.5H98.5825V0.5H103.497V3.5ZM93.6675 3.5H88.7525V0.5H93.6675V3.5ZM83.8375 3.5H78.9225V0.5H83.8375V3.5ZM74.0074 3.5H71.55V0.5H74.0074V3.5ZM71.55 3.5C70.758 3.5 69.9699 3.51567 69.186 3.5467L69.0673 0.549043C69.8908 0.51645 70.7184 0.5 71.55 0.5V3.5ZM64.4812 3.92115C62.9083 4.10995 61.3552 4.36095 59.8242 4.67156L59.2277 1.73146C60.8375 1.40485 62.4704 1.14098 64.1237 0.942533L64.4812 3.92115ZM55.2414 5.79659C53.7237 6.23521 52.2316 6.7335 50.7679 7.28872L49.7039 4.48373C51.2432 3.89984 52.8123 3.37581 54.4085 2.91453L55.2414 5.79659ZM46.4272 9.14001C45.0025 9.81716 43.6096 10.5501 42.2514 11.3359L40.749 8.73926C42.1769 7.91311 43.6413 7.1425 45.1394 6.43048L46.4272 9.14001ZM38.2659 13.8615C36.97 14.7577 35.7122 15.7048 34.4952 16.6997L32.5964 14.377C33.8754 13.3315 35.1974 12.3361 36.5595 11.3941L38.2659 13.8615ZM30.964 19.8305C29.8291 20.9208 28.7382 22.0563 27.6941 23.2338L25.4494 21.2435C26.5466 20.0061 27.693 18.8129 28.8855 17.6672L30.964 19.8305ZM24.7069 26.8873C23.7614 28.1431 22.8654 29.4378 22.0217 30.7685L19.4881 29.162C20.3749 27.7634 21.3166 26.4026 22.3102 25.0829L24.7069 26.8873ZM19.6575 34.8518C18.9265 36.2403 18.2498 37.6613 17.6302 39.1119L14.8714 37.9334C15.5229 36.4081 16.2344 34.9141 17.0028 33.4543L19.6575 34.8518ZM15.9539 43.5232C15.4576 45.0079 15.0193 46.5187 14.6417 48.0527L11.7287 47.3357C12.1258 45.7224 12.5867 44.1336 13.1086 42.5722L15.9539 43.5232ZM13.7008 52.6768C13.4516 54.219 13.2629 55.7809 13.1371 57.3601L10.1466 57.1219C10.2788 55.462 10.4772 53.8199 10.7392 52.1983L13.7008 52.6768ZM12.951 62.0761C12.9513 62.8606 12.9671 63.6487 12.9988 64.44L10.0012 64.56C9.96796 63.7291 9.95132 62.9014 9.95097 62.0773L12.951 62.0761Z" fill="#EDC431"/>
</svg>
