<svg width="65" height="64" viewBox="0 0 65 64" fill="none" xmlns="http://www.w3.org/2000/svg">
    <path fill-rule="evenodd" clip-rule="evenodd" d="M48.5626 13.5887C48.5731 13.3841 48.5011 13.1759 48.3448 13.0196C48.1885 12.8633 47.9804 12.7913 47.7757 12.8018L47.7624 12.8011L47.7624 12.8011C47.7548 12.8006 47.7472 12.8 47.7394 12.8H43.2019C42.7877 12.8 42.4519 13.1358 42.4519 13.55C42.4519 13.9643 42.7877 14.3 43.2019 14.3H46.0037L38.5894 21.7144L35.7935 18.9184C35.6528 18.7778 35.462 18.6987 35.2631 18.6987C35.0642 18.6987 34.8734 18.7778 34.7328 18.9184L21.2502 32.4011C20.9573 32.694 20.9573 33.1689 21.2502 33.4618C21.3966 33.6082 21.5886 33.6814 21.7805 33.6814C21.9724 33.6814 22.1644 33.6082 22.3108 33.4617L35.2631 20.5093L38.0591 23.3053C38.352 23.5982 38.8269 23.5982 39.1198 23.3053L47.0644 15.3608V17.8965C47.0644 18.3107 47.4002 18.6465 47.8144 18.6465C48.2287 18.6465 48.5644 18.3107 48.5644 17.8965V13.625C48.5644 13.6174 48.5639 13.6098 48.5634 13.6023L48.5626 13.5887ZM50.2094 49.7001H48.5644V25.8154C48.5644 24.7037 47.6599 23.7992 46.5483 23.7992H42.8715C41.7597 23.7992 40.8553 24.7037 40.8553 25.8154V49.7001H36.6784V36.637C36.6784 35.5253 35.774 34.6209 34.6623 34.6209H30.9855C29.8738 34.6209 28.9694 35.5254 28.9694 36.637V49.7001H24.7925V42.9348C24.7925 41.8231 23.888 40.9187 22.7763 40.9187H19.0994C17.9877 40.9187 17.0833 41.8232 17.0833 42.9348V49.7001H15.3496C14.9354 49.7001 14.5996 50.0359 14.5996 50.4501C14.5996 50.8643 14.9354 51.2001 15.3496 51.2001H50.2094C50.6236 51.2001 50.9594 50.8643 50.9594 50.4501C50.9594 50.0359 50.6236 49.7001 50.2094 49.7001ZM23.2923 49.7001H18.5832V42.9348C18.5832 42.6502 18.8147 42.4187 19.0994 42.4187H22.7762C23.0608 42.4187 23.2923 42.6502 23.2923 42.9348V49.7001ZM35.1784 49.7001H30.4693V36.637C30.4693 36.3524 30.7008 36.1209 30.9854 36.1209H34.6622C34.9468 36.1209 35.1784 36.3524 35.1784 36.637V49.7001ZM47.0644 49.7001H42.3553V25.8154C42.3553 25.5308 42.5868 25.2992 42.8715 25.2992H46.5483C46.8329 25.2992 47.0644 25.5308 47.0644 25.8154V49.7001ZM20.0025 35.5481C20.0025 35.9623 19.6667 36.2981 19.2525 36.2981C18.8383 36.2981 18.5025 35.9623 18.5025 35.5481C18.5025 35.1339 18.8383 34.7981 19.2525 34.7981C19.6667 34.7981 20.0025 35.1339 20.0025 35.5481Z" fill="#3E1C4E"/>
</svg>
