<svg width="223" height="130" viewBox="0 0 223 130" fill="none" xmlns="http://www.w3.org/2000/svg">
    <path d="M209.921 128.874C210.507 129.46 211.457 129.46 212.043 128.874L221.589 119.328C222.174 118.742 222.174 117.792 221.589 117.207C221.003 116.621 220.053 116.621 219.467 117.207L210.982 125.692L202.497 117.207C201.911 116.621 200.961 116.621 200.375 117.207C199.79 117.792 199.79 118.742 200.375 119.328L209.921 128.874ZM0.981934 3.81845H3.62272V0.818451H0.981934L0.981934 3.81845ZM8.90429 3.81845H14.1859V0.818451H8.90429V3.81845ZM19.4674 3.81845H24.749V0.818451H19.4674V3.81845ZM30.0306 3.81845H35.3122V0.818451H30.0306V3.81845ZM40.5937 3.81845H45.8753V0.818451H40.5937V3.81845ZM51.1569 3.81845H56.4385V0.818451H51.1569V3.81845ZM61.72 3.81845H67.0016V0.818451H61.72V3.81845ZM72.2832 3.81845H77.5648V0.818451H72.2832V3.81845ZM82.8463 3.81845H85.4871V0.818451H82.8463V3.81845ZM85.4871 3.81845C86.3036 3.81845 87.1183 3.82634 87.931 3.84205L87.989 0.842609C87.157 0.826528 86.323 0.818451 85.4871 0.818451V3.81845ZM92.7934 4.03009C94.42 4.12459 96.0381 4.25044 97.6472 4.40704L97.9378 1.42114C96.29 1.26077 94.6329 1.13191 92.9674 1.03514L92.7934 4.03009ZM102.487 4.97405C104.101 5.19529 105.705 5.44756 107.298 5.73026L107.822 2.7764C106.19 2.48684 104.548 2.22844 102.895 2.00186L102.487 4.97405ZM112.073 6.67499C113.662 7.02213 115.24 7.39974 116.805 7.80717L117.561 4.90387C115.957 4.4865 114.341 4.09969 112.713 3.7441L112.073 6.67499ZM121.494 9.12685C123.051 9.59866 124.595 10.1003 126.126 10.6311L127.109 7.79663C125.541 7.25291 123.959 6.73905 122.364 6.25573L121.494 9.12685ZM130.694 12.3169C132.208 12.9098 133.707 13.5317 135.191 14.1817L136.394 11.4338C134.874 10.7679 133.339 10.1309 131.788 9.52358L130.694 12.3169ZM139.61 16.2224C141.072 16.9328 142.518 17.6711 143.947 18.4367L145.364 15.7921C143.9 15.008 142.419 14.2518 140.921 13.5241L139.61 16.2224ZM148.194 20.8202C149.595 21.6431 150.979 22.4927 152.344 23.3684L153.964 20.8433C152.565 19.9464 151.149 19.0762 149.714 18.2334L148.194 20.8202ZM156.39 26.0773C157.722 27.0071 159.034 27.9624 160.327 28.9425L162.139 26.5518C160.815 25.5481 159.471 24.5698 158.107 23.6175L156.39 26.0773ZM164.149 31.9597C165.404 32.9907 166.638 34.0458 167.851 35.1243L169.845 32.8825C168.602 31.778 167.339 30.6975 166.054 29.6418L164.149 31.9597ZM171.426 38.4308C172.596 39.5561 173.744 40.7041 174.87 41.8742L177.032 39.7947C175.88 38.5964 174.704 37.4208 173.506 36.2685L171.426 38.4308ZM178.176 45.4494C179.255 46.6623 180.31 47.8964 181.341 49.1512L183.659 47.2467C182.603 45.9617 181.522 44.6979 180.418 43.4558L178.176 45.4494ZM184.358 52.9734C185.338 54.2662 186.293 55.5787 187.223 56.9104L189.683 55.1929C188.731 53.8291 187.752 52.4849 186.749 51.161L184.358 52.9734ZM189.932 60.9565C190.808 62.3217 191.657 63.7051 192.48 65.1061L195.067 63.5867C194.224 62.1518 193.354 60.7349 192.457 59.3368L189.932 60.9565ZM194.864 69.3531C195.629 70.7824 196.368 72.2284 197.078 73.6904L199.776 72.3792C199.049 70.8817 198.292 69.4006 197.508 67.9367L194.864 69.3531ZM199.119 78.1097C199.769 79.5937 200.391 81.0928 200.983 82.6065L203.777 81.5123C203.169 79.9618 202.532 78.4261 201.867 76.906L199.119 78.1097ZM202.669 87.1743C203.2 88.705 203.702 90.2493 204.174 91.8066L207.045 90.9367C206.561 89.3415 206.047 87.7595 205.504 86.1914L202.669 87.1743ZM205.493 96.4949C205.901 98.0606 206.278 99.6383 206.625 101.227L209.556 100.587C209.201 98.9593 208.814 97.3432 208.397 95.7394L205.493 96.4949ZM207.57 106.002C207.853 107.595 208.105 109.199 208.326 110.813L211.299 110.405C211.072 108.753 210.814 107.11 210.524 105.478L207.57 106.002ZM208.893 115.653C209.05 117.262 209.176 118.88 209.27 120.507L212.265 120.333C212.168 118.667 212.04 117.01 211.879 115.363L208.893 115.653ZM209.458 125.369C209.474 126.182 209.482 126.997 209.482 127.813H212.482C212.482 126.977 212.474 126.143 212.458 125.311L209.458 125.369Z" fill="#EDC431"/>
</svg>
