<svg width="223" height="130" viewBox="0 0 223 130" fill="none" xmlns="http://www.w3.org/2000/svg">
    <path d="M209.921 129.047C210.507 129.632 211.457 129.632 212.043 129.047L221.589 119.501C222.174 118.915 222.174 117.965 221.589 117.379C221.003 116.794 220.053 116.794 219.467 117.379L210.982 125.865L202.497 117.379C201.911 116.794 200.961 116.794 200.375 117.379C199.79 117.965 199.79 118.915 200.375 119.501L209.921 129.047ZM0.981934 3.99115H3.62272V0.99115H0.981934L0.981934 3.99115ZM8.90429 3.99115H14.1859V0.99115H8.90429V3.99115ZM19.4674 3.99115H24.749V0.99115H19.4674V3.99115ZM30.0306 3.99115H35.3122V0.99115H30.0306V3.99115ZM40.5937 3.99115H45.8753V0.99115H40.5937V3.99115ZM51.1569 3.99115H56.4385V0.99115H51.1569V3.99115ZM61.72 3.99115H67.0016V0.99115H61.72V3.99115ZM72.2832 3.99115H77.5648V0.99115H72.2832V3.99115ZM82.8463 3.99115H85.4871V0.99115H82.8463V3.99115ZM85.4871 3.99115C86.3036 3.99115 87.1183 3.99904 87.931 4.01475L87.989 1.01531C87.157 0.999227 86.323 0.99115 85.4871 0.99115V3.99115ZM92.7934 4.20279C94.42 4.29729 96.0381 4.42314 97.6472 4.57974L97.9378 1.59384C96.29 1.43347 94.6329 1.3046 92.9674 1.20784L92.7934 4.20279ZM102.487 5.14675C104.101 5.36799 105.705 5.62026 107.298 5.90296L107.822 2.9491C106.19 2.65954 104.548 2.40114 102.895 2.17455L102.487 5.14675ZM112.073 6.84769C113.662 7.19483 115.24 7.57243 116.805 7.97987L117.561 5.07657C115.957 4.6592 114.341 4.27239 112.713 3.9168L112.073 6.84769ZM121.494 9.29954C123.051 9.77136 124.595 10.273 126.126 10.8038L127.109 7.96933C125.541 7.42561 123.959 6.91175 122.364 6.42842L121.494 9.29954ZM130.694 12.4896C132.208 13.0825 133.707 13.7044 135.191 14.3544L136.394 11.6065C134.874 10.9406 133.339 10.3036 131.788 9.69628L130.694 12.4896ZM139.61 16.3951C141.072 17.1055 142.518 17.8438 143.947 18.6094L145.364 15.9648C143.9 15.1807 142.419 14.4245 140.921 13.6968L139.61 16.3951ZM148.194 20.9929C149.595 21.8158 150.979 22.6654 152.344 23.5411L153.964 21.016C152.565 20.1191 151.149 19.2489 149.714 18.4061L148.194 20.9929ZM156.39 26.25C157.722 27.1798 159.034 28.1351 160.327 29.1152L162.139 26.7245C160.815 25.7208 159.471 24.7425 158.107 23.7902L156.39 26.25ZM164.149 32.1324C165.404 33.1634 166.638 34.2185 167.851 35.297L169.845 33.0552C168.602 31.9507 167.339 30.8702 166.054 29.8144L164.149 32.1324ZM171.426 38.6035C172.596 39.7288 173.744 40.8768 174.87 42.0469L177.032 39.9674C175.88 38.7691 174.704 37.5935 173.506 36.4412L171.426 38.6035ZM178.176 45.6221C179.255 46.835 180.31 48.0691 181.341 49.3239L183.659 47.4194C182.603 46.1344 181.522 44.8706 180.418 43.6285L178.176 45.6221ZM184.358 53.1461C185.338 54.4389 186.293 55.7514 187.223 57.0831L189.683 55.3656C188.731 54.0018 187.752 52.6576 186.749 51.3337L184.358 53.1461ZM189.932 61.1292C190.808 62.4944 191.657 63.8778 192.48 65.2788L195.067 63.7594C194.224 62.3245 193.354 60.9076 192.457 59.5095L189.932 61.1292ZM194.864 69.5258C195.629 70.9551 196.368 72.4011 197.078 73.8631L199.776 72.5519C199.049 71.0544 198.292 69.5733 197.508 68.1094L194.864 69.5258ZM199.119 78.2824C199.769 79.7664 200.391 81.2655 200.983 82.7792L203.777 81.685C203.169 80.1345 202.532 78.5988 201.867 77.0787L199.119 78.2824ZM202.669 87.347C203.2 88.8777 203.702 90.422 204.174 91.9793L207.045 91.1094C206.561 89.5142 206.047 87.9322 205.504 86.3641L202.669 87.347ZM205.493 96.6676C205.901 98.2333 206.278 99.811 206.625 101.4L209.556 100.76C209.201 99.132 208.814 97.5159 208.397 95.9121L205.493 96.6676ZM207.57 106.175C207.853 107.768 208.105 109.372 208.326 110.986L211.299 110.578C211.072 108.925 210.814 107.283 210.524 105.651L207.57 106.175ZM208.893 115.826C209.05 117.435 209.176 119.053 209.27 120.68L212.265 120.506C212.168 118.84 212.04 117.183 211.879 115.535L208.893 115.826ZM209.458 125.542C209.474 126.355 209.482 127.169 209.482 127.986H212.482C212.482 127.15 212.474 126.316 212.458 125.484L209.458 125.542Z" fill="#EDC431"/>
</svg>
