<svg width="369" height="152" viewBox="0 0 369 152" fill="none" xmlns="http://www.w3.org/2000/svg">
    <path d="M367.696 141.561C368.281 140.975 368.281 140.025 367.696 139.439L358.15 129.893C357.564 129.308 356.614 129.308 356.028 129.893C355.443 130.479 355.443 131.429 356.028 132.015L364.514 140.5L356.028 148.985C355.443 149.571 355.443 150.521 356.028 151.107C356.614 151.692 357.564 151.692 358.15 151.107L367.696 141.561ZM204 0H201.442V3H204V0ZM196.327 0H191.212V3H196.327V0ZM186.096 0H180.981V3H186.096V0ZM175.865 0H170.75V3H175.865V0ZM165.635 0H160.519V3H165.635V0ZM155.404 0H150.288V3H155.404V0ZM145.173 0H140.058V3H145.173V0ZM134.942 0H129.827V3H134.942V0ZM124.712 0H119.596V3H124.712V0ZM114.481 0H109.365V3H114.481V0ZM104.25 0H99.1346V3H104.25V0ZM94.0192 0H88.9038V3H94.0192V0ZM83.7884 0H78.6731V3H83.7884V0ZM73.5577 0H71V3H73.5577V0ZM71 0C70.1505 0 69.3045 0.0149251 68.4621 0.0445321L68.5674 3.04268C69.3747 3.01431 70.1857 3 71 3V0ZM63.4094 0.401112C61.7176 0.580966 60.0434 0.82026 58.3889 1.11688L58.9183 4.0698C60.5026 3.78576 62.106 3.55658 63.7265 3.3843L63.4094 0.401112ZM53.437 2.18933C51.7911 2.60819 50.1681 3.08454 48.5704 3.61611L49.5174 6.4627C51.0471 5.95376 52.601 5.49769 54.1768 5.09667L53.437 2.18933ZM43.8217 5.38811C42.2558 6.03746 40.7182 6.74121 39.2113 7.49699L40.5562 10.1786C41.9992 9.45489 43.4715 8.78103 44.9708 8.15929L43.8217 5.38811ZM34.7647 9.93007C33.3098 10.7952 31.8884 11.7107 30.5031 12.6744L32.2162 15.1371C33.5432 14.2141 34.9045 13.3372 36.2979 12.5087L34.7647 9.93007ZM26.448 15.7148C25.1321 16.7764 23.855 17.8841 22.6191 19.0353L24.6638 21.2306C25.8479 20.1277 27.0713 19.0666 28.3318 18.0496L26.448 15.7148ZM19.0353 22.6191C17.8841 23.8551 16.7764 25.1322 15.7148 26.448L18.0496 28.3318C19.0666 27.0713 20.1277 25.8479 21.2306 24.6638L19.0353 22.6191ZM12.6744 30.5031C11.7107 31.8884 10.7952 33.3098 9.93007 34.7647L12.5087 36.2979C13.3372 34.9045 14.2141 33.5432 15.1371 32.2162L12.6744 30.5031ZM7.49699 39.2113C6.74121 40.7182 6.03746 42.2558 5.38811 43.8217L8.15928 44.9708C8.78102 43.4715 9.45488 41.9992 10.1786 40.5562L7.49699 39.2113ZM3.61611 48.5704C3.08453 50.1681 2.60818 51.7911 2.18933 53.437L5.09667 54.1768C5.49769 52.601 5.95376 51.0471 6.4627 49.5174L3.61611 48.5704ZM1.11688 58.3889C0.820258 60.0434 0.580965 61.7176 0.401111 63.4094L3.3843 63.7266C3.55658 62.106 3.78576 60.5026 4.0698 58.9183L1.11688 58.3889ZM0.0445319 68.4621C0.0149251 69.3045 0 70.1505 0 71H3C3 70.1857 3.01431 69.3747 3.04268 68.5675L0.0445319 68.4621ZM0 71C0 71.8495 0.0149251 72.6955 0.0445321 73.5379L3.04268 73.4325C3.01431 72.6253 3 71.8143 3 71H0ZM0.401112 78.5906C0.580966 80.2824 0.82026 81.9566 1.11688 83.6111L4.0698 83.0817C3.78576 81.4974 3.55658 79.894 3.3843 78.2735L0.401112 78.5906ZM2.18933 88.563C2.60819 90.2089 3.08454 91.8319 3.61611 93.4296L6.4627 92.4826C5.95376 90.9529 5.49769 89.399 5.09667 87.8232L2.18933 88.563ZM5.38811 98.1783C6.03746 99.7442 6.74121 101.282 7.49699 102.789L10.1786 101.444C9.45489 100.001 8.78103 98.5285 8.15929 97.0292L5.38811 98.1783ZM9.93007 107.235C10.7952 108.69 11.7107 110.112 12.6744 111.497L15.1371 109.784C14.2141 108.457 13.3372 107.095 12.5087 105.702L9.93007 107.235ZM15.7148 115.552C16.7764 116.868 17.8841 118.145 19.0353 119.381L21.2306 117.336C20.1277 116.152 19.0666 114.929 18.0496 113.668L15.7148 115.552ZM22.6191 122.965C23.8551 124.116 25.1322 125.224 26.448 126.285L28.3318 123.95C27.0713 122.933 25.8479 121.872 24.6638 120.769L22.6191 122.965ZM30.5031 129.326C31.8884 130.289 33.3098 131.205 34.7647 132.07L36.2979 129.491C34.9045 128.663 33.5432 127.786 32.2162 126.863L30.5031 129.326ZM39.2113 134.503C40.7182 135.259 42.2558 135.963 43.8217 136.612L44.9708 133.841C43.4715 133.219 41.9992 132.545 40.5562 131.821L39.2113 134.503ZM48.5704 138.384C50.1681 138.915 51.7911 139.392 53.437 139.811L54.1768 136.903C52.601 136.502 51.0471 136.046 49.5174 135.537L48.5704 138.384ZM58.3889 140.883C60.0434 141.18 61.7176 141.419 63.4094 141.599L63.7265 138.616C62.106 138.443 60.5026 138.214 58.9183 137.93L58.3889 140.883ZM68.4621 141.955C69.3045 141.985 70.1505 142 71 142V139C70.1857 139 69.3747 138.986 68.5675 138.957L68.4621 141.955ZM71 142H73.4636V139H71V142ZM78.3909 142H83.3181V139H78.3909V142ZM88.2454 142H93.1726V139H88.2454V142ZM98.0999 142H103.027V139H98.0999V142ZM107.954 142H112.882V139H107.954V142ZM117.809 142H122.736V139H117.809V142ZM127.663 142H132.591V139H127.663V142ZM137.518 142H142.445V139H137.518V142ZM147.372 142H152.3V139H147.372V142ZM157.227 142H162.154V139H157.227V142ZM167.081 142H172.009V139H167.081V142ZM176.936 142H181.863V139H176.936V142ZM186.79 142H191.718V139H186.79V142ZM196.645 142H201.572V139H196.645V142ZM206.499 142H211.427V139H206.499V142ZM216.354 142H221.281V139H216.354V142ZM226.208 142H231.136V139H226.208V142ZM236.063 142H240.99V139H236.063V142ZM245.917 142H250.845V139H245.917V142ZM255.772 142H260.699V139H255.772V142ZM265.626 142H270.553V139H265.626V142ZM275.481 142H280.408V139H275.481V142ZM285.335 142H290.263V139H285.335V142ZM295.19 142H300.117V139H295.19V142ZM305.044 142H309.971V139H305.044V142ZM314.899 142H319.826V139H314.899V142ZM324.753 142H329.68V139H324.753V142ZM334.608 142H339.535V139H334.608V142ZM344.462 142H349.389V139H344.462V142ZM354.317 142H359.244V139H354.317V142ZM364.171 142H366.635V139H364.171V142Z" fill="#EDC431"/>
</svg>
