<svg width="16" height="16" xmlns="http://www.w3.org/2000/svg">
 <title/>
 <desc/>

 <g>
  <title>background</title>
  <rect fill="none" id="canvas_background" height="18" width="18" y="-1" x="-1"/>
 </g>
 <g>
  <title>Layer 1</title>
  <path fill="#ffffff" id="svg_1" d="m3.447179,15.943771l0,-10.508215l-3.198641,0l0,10.508215l3.198641,0zm0,-14.232919c-0.019054,-0.940374 -0.636288,-1.656363 -1.639008,-1.656363c-1.002975,0 -1.658317,0.715988 -1.658317,1.656363c0,0.919953 0.636289,1.656656 1.619956,1.656656l0.019053,0c1.022028,0 1.658316,-0.736703 1.658316,-1.656656zm5.218395,14.232919l0,-5.987075c0,-0.320417 0.022809,-0.640837 0.115606,-0.869252c0.253699,-0.64052 0.831095,-1.303569 1.8006,-1.303569c1.270078,0 2.066602,0.731891 2.066602,2.172822l0,5.987075l3.220222,0l0,-6.147282c0,-3.293017 -1.731235,-4.825318 -4.040492,-4.825318c-1.893398,0 -2.724493,1.074831 -3.185967,1.8064l0.02312,-1.405431l-3.214658,0c0.04624,1.005989 0,10.57163 0,10.57163l3.214968,0z"/>
 </g>
</svg>
