<?xml version="1.0" encoding="utf-8"?>
<!-- Generator: Adobe Illustrator 23.0.0, SVG Export Plug-In . SVG Version: 6.00 Build 0)  -->
<svg version="1.1" id="Layer_1" xmlns="http://www.w3.org/2000/svg" xmlns:xlink="http://www.w3.org/1999/xlink" x="0px" y="0px"
	 viewBox="0 0 46 45" style="enable-background:new 0 0 46 45;" xml:space="preserve">
<style type="text/css">
	.st0{fill-rule:evenodd;clip-rule:evenodd;fill:#2D4059;}
</style>
<path class="st0" d="M34.7,10.5c0.2,0,0.3,0.1,0.4,0.2c0.1,0.1,0.2,0.3,0.2,0.5L34.9,17c0,0.4-0.3,0.6-0.7,0.6h0
	c-0.4,0-0.7-0.4-0.7-0.7l0.3-4.3l-8.8,6.9c-0.3,0.2-0.6,0.2-0.9,0l-6.1-4.9l-5.9,5.8c-0.1,0.1-0.3,0.2-0.5,0.2
	c-0.2,0-0.4-0.1-0.5-0.2c-0.3-0.3-0.2-0.7,0-1l6.4-6.2c0.2-0.2,0.6-0.2,0.9,0l6.2,4.9l8.1-6.4l-4.4-0.3c-0.4,0-0.7-0.4-0.6-0.7
	c0-0.4,0.4-0.7,0.7-0.6L34.7,10.5z M29.8,18.8h4.8c0.4,0,0.7,0.3,0.7,0.7v14.3c0,0.4-0.3,0.7-0.7,0.7h-4.8c-0.4,0-0.7-0.3-0.7-0.7
	V19.4C29.1,19.1,29.4,18.8,29.8,18.8z M30.6,33h3.4V20.1h-3.4V33z M20.5,24.4h5.3c0.4,0,0.8,0.3,0.8,0.7v8.7c0,0.4-0.4,0.7-0.8,0.7
	h-5.3c-0.4,0-0.8-0.3-0.8-0.7V25C19.7,24.7,20.1,24.4,20.5,24.4z M21.3,33H25v-7.3h-3.7V33z M16.6,26.9h-4.3c-0.4,0-0.7,0.3-0.7,0.7
	v6c0,0.4,0.3,0.7,0.7,0.7h4.3c0.4,0,0.7-0.3,0.7-0.7v-6C17.2,27.2,16.9,26.9,16.6,26.9z M15.9,32.9h-3v-4.5h3V32.9z"/>
</svg>
