<?xml version="1.0" encoding="utf-8"?>
<!-- Generator: Adobe Illustrator 23.0.0, SVG Export Plug-In . SVG Version: 6.00 Build 0)  -->
<svg version="1.1" id="Layer_1" xmlns="http://www.w3.org/2000/svg" xmlns:xlink="http://www.w3.org/1999/xlink" x="0px" y="0px"
	 viewBox="0 0 46 45" style="enable-background:new 0 0 46 45;" xml:space="preserve">
<style type="text/css">
	.st0{fill-rule:evenodd;clip-rule:evenodd;fill:#2D4059;}
</style>
<path class="st0" d="M34.7,16.5L34.7,16.5c0-0.3,0-0.5,0-0.8c0-1.5-1.2-2.7-2.6-2.7c-3-0.2-5.4-1.2-7.4-3.1l0,0
	c-0.7-0.6-1.6-0.6-2.3,0l0,0c-2,2-4.4,2.9-7.4,3.1c-1.5,0.1-2.6,1.3-2.6,2.7c0,0.3,0,0.6,0,0.8l0,0c-0.1,3.1-0.1,7,1.2,10.5
	c0.7,1.9,1.8,3.6,3.2,5c1.6,1.6,3.7,2.8,6.2,3.7c0.1,0,0.2,0.1,0.3,0.1c0.1,0,0.2,0,0.4,0c0.1,0,0.2,0,0.4,0c0.1,0,0.2,0,0.3-0.1
	c2.5-0.9,4.6-2.1,6.2-3.7c1.4-1.4,2.5-3,3.2-5C34.8,23.4,34.8,19.6,34.7,16.5z M32.1,26.4c-1.4,3.7-4.1,6.2-8.5,7.7c0,0,0,0,0,0
	c0,0-0.1,0-0.1,0c0,0,0,0,0,0c-4.4-1.5-7.1-4.1-8.5-7.7c-1.2-3.2-1.1-6.8-1.1-9.9l0,0c0-0.3,0-0.5,0-0.9c0-0.6,0.5-1.2,1.2-1.2
	c1.7-0.1,3.2-0.4,4.6-1c1.4-0.6,2.6-1.4,3.8-2.5c0.1,0,0.1,0,0.2,0c1.1,1.1,2.4,1.9,3.8,2.5c1.4,0.6,2.9,0.9,4.6,1
	c0.6,0,1.2,0.6,1.2,1.2c0,0.3,0,0.6,0,0.9C33.2,19.6,33.3,23.2,32.1,26.4z M23.5,15.9c-3.6,0-6.6,3-6.6,6.6c0,3.6,3,6.6,6.6,6.6
	c3.6,0,6.6-3,6.6-6.6C30.1,18.9,27.1,15.9,23.5,15.9z M23.5,27.5c-2.8,0-5-2.3-5-5c0-2.8,2.3-5,5-5c2.8,0,5,2.3,5,5
	C28.5,25.3,26.3,27.5,23.5,27.5z M22.3,23.5l3.1-3.1c0.3-0.3,0.8-0.3,1.1,0c0.3,0.3,0.3,0.8,0,1.1l-3.6,3.6
	c-0.2,0.2-0.3,0.2-0.5,0.2c-0.2,0-0.4-0.1-0.5-0.2l-1.4-1.4c-0.3-0.3-0.3-0.8,0-1.1c0.3-0.3,0.8-0.3,1.1,0L22.3,23.5z"/>
</svg>
