<?xml version="1.0" encoding="utf-8"?>
<!-- Generator: Adobe Illustrator 23.0.0, SVG Export Plug-In . SVG Version: 6.00 Build 0)  -->
<svg version="1.1" id="Layer_1" xmlns="http://www.w3.org/2000/svg" xmlns:xlink="http://www.w3.org/1999/xlink" x="0px" y="0px"
	 viewBox="0 0 46 45" style="enable-background:new 0 0 46 45;" xml:space="preserve">
<style type="text/css">
	.st0{fill-rule:evenodd;clip-rule:evenodd;fill:#2D4059;}
</style>
<path class="st0" d="M36.6,11.3c-0.1-1-0.9-1.9-1.9-1.9c-2.1-0.1-6.2,0-10.2,2c-2,1-4.1,2.8-5.8,4.8c0,0,0,0,0,0l0,0l-3.8,0.3
	c-0.6,0-1.2,0.4-1.5,0.9l-2.6,4c-0.3,0.4-0.3,0.9-0.1,1.3c0.2,0.4,0.6,0.7,1.1,0.8l3.2,0.5l0,0c0,0.1,0,0.1,0,0.2
	c-0.1,0.6,0.1,1.3,0.6,1.8l4.5,4.5c0.4,0.4,0.9,0.6,1.4,0.6c0.1,0,0.2,0,0.3,0c0.1,0,0.1,0,0.2,0l0,0l0,0l0.5,3.2
	c0.1,0.5,0.4,0.9,0.8,1.1c0.2,0.1,0.4,0.1,0.6,0.1c0.3,0,0.5-0.1,0.8-0.2l4-2.6c0.5-0.4,0.9-0.9,0.9-1.5l0.3-3.8l0,0c0,0,0,0,0,0
	c2-1.7,3.8-3.8,4.8-5.8C36.6,17.6,36.7,13.4,36.6,11.3z M27.6,31.5L23.8,34l-0.5-3.2c1.6-0.5,3.2-1.2,4.7-2.2l-0.2,2.5
	C27.8,31.3,27.7,31.4,27.6,31.5z M20.9,29.6l-4.5-4.5c-0.1-0.1-0.2-0.3-0.1-0.4c0.1-0.8,0.3-1.6,0.6-2.3l6.8,6.8
	c-0.9,0.3-1.6,0.5-2.3,0.6C21.2,29.7,21,29.7,20.9,29.6z M14.9,18.2l2.5-0.2c-1,1.5-1.8,3.1-2.2,4.7L12,22.2l2.5-3.8
	C14.6,18.3,14.7,18.2,14.9,18.2z M28.7,26.1c-1.2,1-2.4,1.8-3.6,2.3l-7.7-7.7c0.7-1.5,1.6-2.7,2.3-3.6c1.6-1.9,3.5-3.5,5.3-4.4
	c3.6-1.9,7.4-2,9.4-1.9c0.3,0,0.5,0.2,0.5,0.5c0.1,1.9,0,5.8-1.9,9.4C32.2,22.6,30.6,24.6,28.7,26.1z M28.3,21.5c1,0,2-0.4,2.7-1.1
	c0.7-0.7,1.1-1.7,1.1-2.7s-0.4-2-1.1-2.7c-1.5-1.5-3.9-1.5-5.4,0c-0.7,0.7-1.1,1.7-1.1,2.7s0.4,2,1.1,2.7
	C26.4,21.1,27.4,21.5,28.3,21.5z M26.7,16c0.4-0.4,1-0.7,1.6-0.7c0.6,0,1.2,0.2,1.6,0.7c0.4,0.4,0.7,1,0.7,1.6
	c0,0.6-0.2,1.2-0.7,1.6c-0.9,0.9-2.4,0.9-3.3,0c-0.4-0.4-0.7-1-0.7-1.6C26,17,26.3,16.4,26.7,16z M11.7,30.8
	c-0.2,0.2-0.3,0.2-0.5,0.2c-0.2,0-0.4-0.1-0.5-0.2c-0.3-0.3-0.3-0.8,0-1.1l2.5-2.5c0.3-0.3,0.8-0.3,1.1,0c0.3,0.3,0.3,0.8,0,1.1
	L11.7,30.8z M16.5,29.5c-0.3-0.3-0.8-0.3-1.1,0l-4.8,4.8c-0.3,0.3-0.3,0.8,0,1.1c0.2,0.2,0.3,0.2,0.5,0.2c0.2,0,0.4-0.1,0.5-0.2
	l4.8-4.8C16.8,30.3,16.8,29.8,16.5,29.5z M15.2,34.3l2.5-2.5c0.3-0.3,0.8-0.3,1.1,0c0.3,0.3,0.3,0.8,0,1.1l-2.5,2.5
	c-0.2,0.2-0.3,0.2-0.5,0.2s-0.4-0.1-0.5-0.2C14.9,35.1,14.9,34.6,15.2,34.3z"/>
</svg>
