<svg width="208" height="150" viewBox="0 0 208 150" fill="none" xmlns="http://www.w3.org/2000/svg">
    <path d="M13.0412 148.883C12.4554 149.469 11.5057 149.469 10.9199 148.883L1.37393 139.337C0.788147 138.751 0.788147 137.801 1.37393 137.215C1.95972 136.63 2.90945 136.63 3.49525 137.215L11.9805 145.701L20.4658 137.215C21.0516 136.63 22.0013 136.63 22.5871 137.215C23.1729 137.801 23.1729 138.751 22.5871 139.337L13.0412 148.883ZM207.981 3.8212H205.659V0.821198H207.981V3.8212ZM201.016 3.8212H196.373V0.821198H201.016V3.8212ZM191.731 3.8212H187.088V0.821198H191.731V3.8212ZM182.445 3.8212H177.802V0.821198H182.445V3.8212ZM173.159 3.8212H168.516V0.821198H173.159V3.8212ZM163.873 3.8212H159.231V0.821198H163.873V3.8212ZM154.588 3.8212H149.945V0.821198H154.588V3.8212ZM145.302 3.8212H142.981V0.821198H145.302V3.8212ZM142.981 3.8212C142.168 3.8212 141.358 3.82867 140.549 3.84356L140.494 0.844063C141.321 0.828841 142.15 0.821198 142.981 0.821198V3.8212ZM135.714 4.02159C134.095 4.11112 132.484 4.2304 130.881 4.37887L130.604 1.39166C132.244 1.23977 133.892 1.11775 135.548 1.02616L135.714 4.02159ZM126.065 4.91585C124.459 5.1253 122.863 5.36416 121.276 5.63187L120.777 2.67368C122.4 2.39975 124.034 2.15535 125.677 1.94105L126.065 4.91585ZM116.52 6.52639C114.934 6.85561 113.359 7.21383 111.795 7.60047L111.075 4.68815C112.676 4.29249 114.288 3.92591 115.91 3.58902L116.52 6.52639ZM107.115 8.85159C105.56 9.29875 104.018 9.77425 102.488 10.2775L101.55 7.42768C103.116 6.91268 104.695 6.42607 106.286 5.96847L107.115 8.85159ZM97.9184 11.8763C96.402 12.4392 94.8989 13.0297 93.4099 13.6471L92.2607 10.8759C93.7845 10.2441 95.3226 9.63981 96.8744 9.06378L97.9184 11.8763ZM88.9707 15.5867C87.5017 16.2617 86.0476 16.9634 84.6088 17.6911L83.2547 15.0141C84.7269 14.2694 86.2149 13.5514 87.7181 12.8607L88.9707 15.5867ZM80.3296 19.9574C78.9159 20.7404 77.5184 21.549 76.1377 22.3827L74.587 19.8146C75.9997 18.9616 77.4296 18.1342 78.8761 17.3331L80.3296 19.9574ZM72.0382 24.964C70.6872 25.8503 69.3537 26.7612 68.0385 27.6961L66.3004 25.2509C67.646 24.2944 69.0103 23.3624 70.3925 22.4556L72.0382 24.964ZM64.1438 30.5752C62.8631 31.5594 61.6013 32.567 60.359 33.5974L58.4438 31.2883C59.7147 30.2342 61.0056 29.2034 62.3158 28.1965L64.1438 30.5752ZM56.6887 36.7588C55.4849 37.8353 54.3013 38.934 53.1386 40.0542L51.0571 37.8939C52.2466 36.7478 53.4574 35.6238 54.6889 34.5225L56.6887 36.7588ZM49.7136 43.4793C48.5934 44.642 47.4946 45.8255 46.4181 47.0293L44.1819 45.0295C45.2832 43.798 46.4072 42.5872 47.5532 41.3977L49.7136 43.4793ZM43.2567 50.6997C42.2264 51.9419 41.2188 53.2037 40.2346 54.4844L37.8558 52.6565C38.8627 51.3462 39.8936 50.0553 40.9477 48.7844L43.2567 50.6997ZM37.3555 58.3791C36.4206 59.6944 35.5097 61.0278 34.6233 62.3788L32.115 60.7332C33.0218 59.3509 33.9538 57.9867 34.9102 56.6411L37.3555 58.3791ZM32.0421 66.4784C31.2084 67.859 30.3997 69.2565 29.6168 70.6702L26.9924 69.2167C27.7935 67.7702 28.6209 66.3403 29.4739 64.9276L32.0421 66.4784ZM27.3505 74.9494C26.6227 76.3882 25.921 77.8424 25.246 79.3113L22.5201 78.0587C23.2108 76.5555 23.9288 75.0675 24.6735 73.5953L27.3505 74.9494ZM23.3065 83.7505C22.689 85.2396 22.0985 86.7426 21.5356 88.259L18.7231 87.215C19.2991 85.6632 19.9034 84.1251 20.5353 82.6014L23.3065 83.7505ZM19.9368 92.8281C19.4336 94.3582 18.9581 95.9009 18.5109 97.4556L15.6278 96.6264C16.0854 95.0354 16.572 93.4567 17.087 91.8908L19.9368 92.8281ZM17.2598 102.136C16.8732 103.7 16.515 105.275 16.1857 106.861L13.2484 106.251C13.5853 104.628 13.9518 103.016 14.3475 101.416L17.2598 102.136ZM15.2912 111.617C15.0235 113.203 14.7846 114.8 14.5752 116.405L11.6004 116.017C11.8147 114.374 12.0591 112.741 12.333 111.117L15.2912 111.617ZM14.0382 121.222C13.8897 122.824 13.7705 124.436 13.6809 126.055L10.6855 125.889C10.7771 124.233 10.8991 122.585 11.051 120.945L14.0382 121.222ZM13.5029 130.89C13.488 131.699 13.4805 132.509 13.4805 133.321H10.4805C10.4805 132.491 10.4882 131.662 10.5034 130.835L13.5029 130.89ZM13.4805 133.321V136.946H10.4805V133.321H13.4805ZM13.4805 144.197V147.822H10.4805V144.197H13.4805Z" fill="#EDC431"/>
</svg>
