<svg width="219" height="66" viewBox="0 0 219 66" fill="none" xmlns="http://www.w3.org/2000/svg">
    <path d="M206.398 65.5174C206.96 66.1262 207.909 66.1641 208.517 65.6022L218.437 56.4454C219.046 55.8835 219.084 54.9345 218.522 54.3258C217.96 53.7171 217.011 53.6791 216.402 54.241L207.585 62.3804L199.445 53.5627C198.884 52.954 197.935 52.916 197.326 53.4779C196.717 54.0399 196.679 54.9888 197.241 55.5976L206.398 65.5174ZM0 3.5H2.4575V0.5H0L0 3.5ZM7.3725 3.5H12.2875V0.5H7.3725V3.5ZM17.2025 3.5H22.1175V0.5H17.2025V3.5ZM27.0325 3.5H31.9475V0.5H27.0325V3.5ZM36.8625 3.5H41.7775V0.5H36.8625V3.5ZM46.6925 3.5H51.6075V0.5H46.6925V3.5ZM56.5225 3.5H61.4375V0.5H56.5225V3.5ZM66.3525 3.5H71.2675V0.5H66.3525V3.5ZM76.1825 3.5H81.0975V0.5H76.1825V3.5ZM86.0125 3.5H90.9275V0.5H86.0125V3.5ZM95.8425 3.5H100.758V0.5H95.8425V3.5ZM105.673 3.5H110.588V0.5H105.673V3.5ZM115.503 3.5H120.418V0.5H115.503V3.5ZM125.333 3.5H130.248V0.5H125.333V3.5ZM135.163 3.5H140.078V0.5H135.163V3.5ZM144.993 3.5H147.45V0.5H144.993V3.5ZM147.45 3.5C148.242 3.5 149.03 3.51567 149.814 3.5467L149.933 0.549043C149.109 0.51645 148.282 0.5 147.45 0.5V3.5ZM154.519 3.92115C156.092 4.10995 157.645 4.36095 159.176 4.67156L159.772 1.73146C158.162 1.40485 156.53 1.14098 154.876 0.942533L154.519 3.92115ZM163.759 5.79659C165.276 6.23521 166.768 6.7335 168.232 7.28872L169.296 4.48373C167.757 3.89984 166.188 3.37581 164.592 2.91453L163.759 5.79659ZM172.573 9.14001C173.998 9.81716 175.39 10.5501 176.749 11.3359L178.251 8.73926C176.823 7.91311 175.359 7.1425 173.861 6.43048L172.573 9.14001ZM180.734 13.8615C182.03 14.7577 183.288 15.7048 184.505 16.6997L186.404 14.377C185.125 13.3315 183.803 12.3361 182.441 11.3941L180.734 13.8615ZM188.036 19.8305C189.171 20.9208 190.262 22.0563 191.306 23.2338L193.551 21.2435C192.453 20.0061 191.307 18.8129 190.114 17.6672L188.036 19.8305ZM194.293 26.8873C195.239 28.1431 196.135 29.4378 196.978 30.7685L199.512 29.162C198.625 27.7634 197.683 26.4026 196.69 25.0829L194.293 26.8873ZM199.343 34.8518C200.073 36.2403 200.75 37.6613 201.37 39.1119L204.129 37.9334C203.477 36.4081 202.766 34.9141 201.997 33.4543L199.343 34.8518ZM203.046 43.5232C203.542 45.0079 203.981 46.5187 204.358 48.0527L207.271 47.3357C206.874 45.7224 206.413 44.1336 205.891 42.5722L203.046 43.5232ZM205.299 52.6768C205.548 54.219 205.737 55.7809 205.863 57.3601L208.853 57.1219C208.721 55.462 208.523 53.8199 208.261 52.1983L205.299 52.6768ZM206.049 62.0761C206.049 62.8606 206.033 63.6487 206.001 64.44L208.999 64.56C209.032 63.7291 209.049 62.9014 209.049 62.0773L206.049 62.0761Z" fill="#3E1C4E"/>
</svg>
