<svg width="65" height="64" viewBox="0 0 65 64" fill="none" xmlns="http://www.w3.org/2000/svg">
    <path fill-rule="evenodd" clip-rule="evenodd" d="M44.3693 31.6575C44.2625 31.8752 44.2625 32.125 44.3693 32.3427L45.3591 34.3611C45.9103 35.4849 45.4736 36.8244 44.365 37.4106L42.374 38.4636C42.1593 38.5772 42.012 38.7793 41.97 39.018L41.5805 41.2307C41.3637 42.4627 40.2209 43.2906 38.9779 43.1154L36.7462 42.8007C36.5055 42.767 36.2672 42.844 36.0924 43.0125L34.4725 44.5745C34.0216 45.0093 33.4426 45.2267 32.864 45.2268C32.2852 45.2268 31.7066 45.0094 31.2555 44.5745L29.6356 43.0125C29.4608 42.844 29.2225 42.7667 28.9818 42.8007L26.7501 43.1154C26.6387 43.1311 26.5279 43.1387 26.4187 43.1387C25.3097 43.1388 24.3449 42.3523 24.1475 41.2307L23.7581 39.0179C23.716 38.7793 23.5688 38.5771 23.354 38.4636L21.3629 37.4106C20.2544 36.8244 19.8177 35.4849 20.3688 34.3611L21.3587 32.3429C21.4655 32.1251 21.4655 31.8754 21.3587 31.6576L20.3689 29.6393C19.8178 28.5155 20.2544 27.176 21.363 26.5898L23.354 25.5368C23.5688 25.4232 23.716 25.2211 23.7581 24.9825L24.1475 22.7698C24.3643 21.5377 25.5073 20.7097 26.75 20.885L28.9817 21.1997C29.2226 21.2335 29.4608 21.1564 29.6355 20.9879L31.2555 19.4258C32.1575 18.556 33.5705 18.556 34.4725 19.4258L36.0924 20.9877C36.2672 21.1562 36.5054 21.2334 36.7462 21.1995L38.9779 20.8849C40.2203 20.7097 41.3637 21.5376 41.5805 22.7696L41.9699 24.9824C42.0119 25.221 42.1592 25.4232 42.374 25.5367L44.365 26.5897C45.4736 27.1759 45.9103 28.5154 45.3591 29.6392L44.3693 31.6575ZM41.6566 37.1158L43.6476 36.0628C44.0227 35.8645 44.1704 35.4112 43.9839 35.0309L42.994 33.0127C42.6785 32.3692 42.6785 31.6309 42.994 30.9874L43.9839 28.9692C44.1703 28.589 44.0226 28.1358 43.6475 27.9374L41.6565 26.8845C41.0217 26.5488 40.5864 25.9516 40.4622 25.2461L40.0728 23.0332C39.9994 22.6164 39.6125 22.3363 39.1922 22.3956L36.9605 22.7102C36.249 22.8106 35.5446 22.5825 35.028 22.0844L33.4081 20.5224C33.1029 20.2282 32.6248 20.2282 32.3197 20.5224L30.6997 22.0844C30.1832 22.5824 29.4787 22.8106 28.7672 22.7102L26.5356 22.3956C26.115 22.3364 25.7284 22.6164 25.655 23.0332L25.2656 25.246C25.1415 25.9516 24.7061 26.5487 24.0713 26.8845L22.0803 27.9374C21.7052 28.1358 21.5575 28.589 21.7439 28.9692L22.7338 30.9875C23.0494 31.631 23.0494 32.3692 22.7338 33.0127L21.7439 35.031C21.5575 35.4112 21.7052 35.8644 22.0803 36.0628L24.0713 37.1157C24.7062 37.4514 25.1415 38.0486 25.2657 38.7541L25.6551 40.967C25.7285 41.3838 26.1155 41.6638 26.5357 41.6046L28.7673 41.29C28.8776 41.2744 28.9876 41.2668 29.0968 41.2668C29.6926 41.2668 30.2633 41.4949 30.6998 41.9158L32.3198 43.4778C32.625 43.772 33.1031 43.772 33.4082 43.4778L35.0281 41.9159C35.5447 41.4178 36.2489 41.1895 36.9606 41.29L39.1923 41.6047C39.6129 41.6638 39.9995 41.3838 40.0729 40.967L40.4623 38.7542C40.5864 38.0487 41.0218 37.4515 41.6566 37.1158ZM37.3795 26.4958C37.6787 26.2016 38.164 26.2016 38.4632 26.4958C38.7625 26.79 38.7625 27.267 38.4632 27.5612L28.3484 37.5045C28.1988 37.6516 28.0027 37.7251 27.8066 37.7251C27.6105 37.7251 27.4144 37.6515 27.2648 37.5045C26.9655 37.2103 26.9655 36.7333 27.2648 36.4391L37.3795 26.4958ZM29.8041 25.0905C28.2802 25.0905 27.0403 26.3747 27.0403 27.953C27.0403 29.5314 28.2802 30.8155 29.8041 30.8155C31.328 30.8155 32.5679 29.5314 32.5679 27.953C32.5679 26.3747 31.328 25.0905 29.8041 25.0905ZM29.8041 29.2541C29.1114 29.2541 28.5479 28.6705 28.5479 27.953C28.5479 27.2355 29.1114 26.6519 29.8041 26.6519C30.4968 26.6519 31.0604 27.2355 31.0604 27.953C31.0603 28.6705 30.4968 29.2541 29.8041 29.2541ZM33.1601 36.0472C33.1601 34.4688 34.3999 33.1847 35.9239 33.1847C37.4478 33.1847 38.6877 34.4688 38.6877 36.0472C38.6877 37.6256 37.4478 38.9097 35.9239 38.9097C34.3999 38.9097 33.1601 37.6256 33.1601 36.0472ZM34.6676 36.0472C34.6676 36.7646 35.2312 37.3483 35.9239 37.3483C36.6166 37.3483 37.1801 36.7646 37.1801 36.0472C37.1801 35.3298 36.6166 34.7461 35.9239 34.7461C35.2311 34.7461 34.6676 35.3298 34.6676 36.0472Z" fill="#3E1C4E"/>
</svg>
