<svg width="65" height="64" viewBox="0 0 65 64" fill="none" xmlns="http://www.w3.org/2000/svg">
    <path fill-rule="evenodd" clip-rule="evenodd" d="M26.1731 25.4094H20.2373C18.8734 25.4094 17.7637 24.2997 17.7637 22.9358C17.7637 21.5701 18.8734 20.4604 20.2373 20.4604H26.1731C26.9321 19.4377 28.1481 18.7734 29.5166 18.7734C30.8852 18.7734 32.1013 19.4377 32.8602 20.4605H42.17C43.534 20.4605 44.6437 21.5702 44.6437 22.9341C44.6437 24.2997 43.534 25.4094 42.17 25.4094H32.8602C32.1012 26.4322 30.8852 27.0964 29.5166 27.0964C28.1481 27.0964 26.9321 26.4322 26.1731 25.4094ZM43.0687 22.9357C43.0687 22.4386 42.6655 22.0354 42.17 22.0354H33.5792C33.6433 22.3253 33.6782 22.626 33.6782 22.9349C33.6782 23.2438 33.6433 23.5445 33.5792 23.8344H42.17C42.6655 23.8344 43.0687 23.4312 43.0687 22.9357ZM32.1032 22.935C32.1032 21.5087 30.9429 20.3484 29.5166 20.3484C28.0904 20.3484 26.9302 21.5088 26.9302 22.935C26.9302 24.3611 28.0904 25.5215 29.5166 25.5215C30.9429 25.5215 32.1032 24.3612 32.1032 22.935ZM25.4541 22.0354H20.2373C19.7418 22.0354 19.3387 22.4386 19.3387 22.9341C19.3387 23.4313 19.7418 23.8344 20.2373 23.8344H25.4541C25.39 23.5445 25.3551 23.2438 25.3551 22.9349C25.3551 22.626 25.39 22.3253 25.4541 22.0354ZM42.17 29.7388H39.6082C38.8492 28.7161 37.6332 28.0518 36.2647 28.0518C34.8962 28.0518 33.6801 28.7161 32.9212 29.7388H20.2373C18.8734 29.7388 17.7637 30.8484 17.7637 32.2141C17.7637 33.5781 18.8734 34.6878 20.2373 34.6878H32.9212C33.6801 35.7105 34.8962 36.3748 36.2647 36.3748C37.6332 36.3748 38.8492 35.7105 39.6082 34.6878H42.17C43.534 34.6878 44.6437 33.5781 44.6437 32.2124C44.6437 30.8484 43.534 29.7388 42.17 29.7388ZM20.2373 33.1128C19.7418 33.1128 19.3387 32.7096 19.3387 32.2124C19.3387 31.717 19.7418 31.3138 20.2373 31.3138H32.2022C32.1381 31.6037 32.1032 31.9044 32.1032 32.2133C32.1032 32.5221 32.1381 32.8229 32.2022 33.1128H20.2373ZM36.2647 34.7998C34.8385 34.7998 33.6782 33.6395 33.6782 32.2133C33.6782 30.7871 34.8385 29.6268 36.2647 29.6268C37.6909 29.6268 38.8512 30.7871 38.8512 32.2133C38.8512 33.6395 37.6909 34.7998 36.2647 34.7998ZM42.17 33.1128H40.3272C40.3913 32.8229 40.4262 32.5221 40.4262 32.2133C40.4262 31.9044 40.3913 31.6037 40.3272 31.3138H42.17C42.6655 31.3138 43.0687 31.717 43.0687 32.2141C43.0687 32.7097 42.6655 33.1128 42.17 33.1128ZM42.17 39.0175H29.4861C28.7272 37.9947 27.5111 37.3305 26.1426 37.3305C24.7741 37.3305 23.558 37.9947 22.7991 39.0175H20.2373C18.8734 39.0175 17.7637 40.1272 17.7637 41.4928C17.7637 42.8568 18.8734 43.9665 20.2373 43.9665H22.7992C23.5581 44.9892 24.7741 45.6535 26.1427 45.6535C27.5112 45.6535 28.7272 44.9892 29.4862 43.9665H42.17C43.534 43.9665 44.6437 42.8568 44.6437 41.4912C44.6437 40.1272 43.534 39.0175 42.17 39.0175ZM20.2373 42.3915C19.7418 42.3915 19.3387 41.9883 19.3387 41.4912C19.3387 40.9957 19.7418 40.5925 20.2373 40.5925H22.0802C22.016 40.8824 21.9812 41.1831 21.9812 41.492C21.9812 41.8009 22.016 42.1016 22.0802 42.3915H20.2373ZM26.1427 44.0785C24.7165 44.0785 23.5562 42.9182 23.5562 41.4919C23.5562 40.0657 24.7165 38.9054 26.1427 38.9054C27.5689 38.9054 28.7292 40.0657 28.7292 41.4919C28.7292 42.9182 27.5689 44.0785 26.1427 44.0785ZM42.17 42.3915H30.2051C30.2693 42.1016 30.3041 41.8009 30.3041 41.492C30.3041 41.1831 30.2693 40.8824 30.2051 40.5925H42.17C42.6655 40.5925 43.0687 40.9957 43.0687 41.4928C43.0687 41.9883 42.6655 42.3915 42.17 42.3915Z" fill="#3E1C4E"/>
</svg>
