<svg width="32" height="32" viewBox="0 0 32 32" fill="none" xmlns="http://www.w3.org/2000/svg">
<circle cx="16" cy="16" r="16" fill="url(#paint0_linear)"/>
<path d="M15.9625 7.25887L16.5414 6.25696C16.8987 5.63077 17.6955 5.41966 18.3208 5.77748C18.9462 6.1353 19.157 6.93325 18.7997 7.55944L13.2218 17.2278H17.256C18.5638 17.2278 19.2963 18.7665 18.7282 19.8328H6.90068C6.17888 19.8328 5.60001 19.2531 5.60001 18.5303C5.60001 17.8075 6.17888 17.2278 6.90068 17.2278H10.2167L14.4617 9.86024L13.136 7.55586C12.7787 6.92967 12.9895 6.13888 13.6148 5.7739C14.2402 5.41608 15.0299 5.62719 15.3943 6.25339L15.9625 7.25887ZM10.9456 21.1746L9.69497 23.3466C9.33765 23.9728 8.54081 24.1839 7.91548 23.8261C7.29016 23.4683 7.07934 22.6703 7.43667 22.0441L8.36572 20.4339C9.41626 20.1083 10.2703 20.3588 10.9456 21.1746ZM21.7154 17.235H25.0993C25.8211 17.235 26.4 17.8147 26.4 18.5375C26.4 19.2603 25.8211 19.8399 25.0993 19.8399H23.2198L24.4883 22.0441C24.8456 22.6703 24.6348 23.4611 24.0095 23.8261C23.3842 24.1839 22.5945 23.9728 22.23 23.3466C20.0932 19.636 18.4888 16.8593 17.424 15.0093C16.3341 13.1272 17.1131 11.2379 17.8813 10.5974C18.7353 12.0644 20.011 14.2794 21.7154 17.235Z" fill="white"/>
<defs>
<linearGradient id="paint0_linear" x1="15.998" y1="0" x2="15.998" y2="32" gradientUnits="userSpaceOnUse">
<stop stop-color="#13C4FC"/>
<stop offset="1" stop-color="#1664EF"/>
</linearGradient>
</defs>
</svg>
