<svg width="32" height="32" viewBox="0 0 32 32" fill="none" xmlns="http://www.w3.org/2000/svg">
<circle cx="16" cy="16" r="16" fill="url(#paint0_radial)"/>
<path d="M16.0008 7.33335C13.6471 7.33335 13.3517 7.34364 12.4272 7.38571C11.5046 7.42796 10.8748 7.57403 10.3237 7.78835C9.7537 8.00971 9.27017 8.30582 8.78844 8.78773C8.30635 9.26945 8.01024 9.75298 7.78815 10.3228C7.57329 10.874 7.42704 11.504 7.38551 12.4263C7.34416 13.3507 7.33333 13.6463 7.33333 16C7.33333 18.3537 7.3438 18.6482 7.38569 19.5727C7.42812 20.4953 7.57419 21.1251 7.78833 21.6761C8.00988 22.2462 8.30599 22.7297 8.7879 23.2114C9.26945 23.6935 9.75298 23.9903 10.3226 24.2117C10.8741 24.426 11.504 24.5721 12.4265 24.6143C13.3509 24.6564 13.6462 24.6667 15.9997 24.6667C18.3537 24.6667 18.6481 24.6564 19.5726 24.6143C20.4952 24.5721 21.1257 24.426 21.6772 24.2117C22.247 23.9903 22.7298 23.6935 23.2114 23.2114C23.6935 22.7297 23.9896 22.2462 24.2117 21.6763C24.4247 21.1251 24.571 20.4951 24.6143 19.5729C24.6558 18.6484 24.6667 18.3537 24.6667 16C24.6667 13.6463 24.6558 13.3509 24.6143 12.4265C24.571 11.5038 24.4247 10.874 24.2117 10.323C23.9896 9.75298 23.6935 9.26945 23.2114 8.78773C22.7293 8.30564 22.2472 8.00953 21.6766 7.78835C21.1241 7.57403 20.494 7.42796 19.5713 7.38571C18.6469 7.34364 18.3526 7.33335 15.9981 7.33335H16.0008ZM15.2233 8.89516C15.4541 8.8948 15.7116 8.89516 16.0008 8.89516C18.3148 8.89516 18.5891 8.90346 19.5029 8.94499C20.3479 8.98363 20.8065 9.12482 21.112 9.24345C21.5165 9.40053 21.8048 9.58831 22.108 9.89164C22.4113 10.195 22.5991 10.4839 22.7565 10.8883C22.8752 11.1934 23.0165 11.6521 23.055 12.4971C23.0965 13.4107 23.1056 13.6851 23.1056 15.998C23.1056 18.3109 23.0965 18.5854 23.055 19.499C23.0164 20.344 22.8752 20.8026 22.7565 21.1078C22.5995 21.5122 22.4113 21.8002 22.108 22.1033C21.8046 22.4067 21.5167 22.5944 21.112 22.7515C20.8069 22.8707 20.3479 23.0115 19.5029 23.0502C18.5893 23.0917 18.3148 23.1007 16.0008 23.1007C13.6866 23.1007 13.4123 23.0917 12.4987 23.0502C11.6537 23.0112 11.1951 22.87 10.8894 22.7513C10.485 22.5943 10.1961 22.4065 9.89273 22.1032C9.58939 21.7998 9.40161 21.5117 9.24417 21.107C9.12554 20.8019 8.98416 20.3433 8.94571 19.4983C8.90418 18.5847 8.89587 18.3102 8.89587 15.9959C8.89587 13.6815 8.90418 13.4085 8.94571 12.4949C8.98435 11.6499 9.12554 11.1913 9.24417 10.8858C9.40125 10.4813 9.58939 10.1924 9.89273 9.88911C10.1961 9.58578 10.485 9.398 10.8894 9.24056C11.1949 9.12139 11.6537 8.98056 12.4987 8.94174C13.2982 8.90563 13.6081 8.8948 15.2233 8.89299V8.89516ZM20.627 10.3342C20.0529 10.3342 19.587 10.7995 19.587 11.3738C19.587 11.948 20.0529 12.4138 20.627 12.4138C21.2012 12.4138 21.6671 11.948 21.6671 11.3738C21.6671 10.7997 21.2012 10.3338 20.627 10.3338V10.3342ZM16.0008 11.5493C13.5429 11.5493 11.5501 13.5421 11.5501 16C11.5501 18.4579 13.5429 20.4498 16.0008 20.4498C18.4587 20.4498 20.4508 18.4579 20.4508 16C20.4508 13.5421 18.4586 11.5493 16.0006 11.5493H16.0008ZM16.0008 13.1111C17.5962 13.1111 18.8897 14.4044 18.8897 16C18.8897 17.5954 17.5962 18.8889 16.0008 18.8889C14.4052 18.8889 13.1119 17.5954 13.1119 16C13.1119 14.4044 14.4052 13.1111 16.0008 13.1111Z" fill="white"/>
<defs>
<radialGradient id="paint0_radial" cx="0" cy="0" r="1" gradientUnits="userSpaceOnUse" gradientTransform="translate(8.50004 34.4647) rotate(-90) scale(31.7144 29.4969)">
<stop stop-color="#FFDD55"/>
<stop offset="0.1" stop-color="#FFDD55"/>
<stop offset="0.5" stop-color="#FF543E"/>
<stop offset="1" stop-color="#C837AB"/>
</radialGradient>
</defs>
</svg>
