<svg width="32" height="32" viewBox="0 0 32 32" fill="none" xmlns="http://www.w3.org/2000/svg">
<circle cx="16" cy="16" r="16" fill="#1ED760"/>
<path fill-rule="evenodd" clip-rule="evenodd" d="M26.5937 13.3248C26.5898 14.3745 25.4893 15.0156 24.5686 14.4937C23.9431 14.1399 23.3039 13.8193 22.6393 13.5535C21.3159 13.0238 19.9456 12.666 18.5441 12.4197C17.5687 12.2477 16.5854 12.1343 15.5963 12.0738C14.5681 12.0112 13.5399 12.0053 12.5117 12.0581C11.333 12.1187 10.1621 12.2477 9.00885 12.4979C8.58271 12.5898 8.16244 12.7051 7.74022 12.8185C7.48219 12.8869 7.22808 12.8967 6.97005 12.8205C6.40513 12.6563 6.01809 12.15 6.0005 11.5597C5.98486 10.985 6.33867 10.4513 6.89577 10.2695C7.30236 10.1346 7.72067 10.0291 8.13899 9.93331C9.175 9.69483 10.2247 9.54627 11.2822 9.44853C12.4062 9.34493 13.5321 9.31366 14.66 9.34493C17.4357 9.42508 20.1567 9.82971 22.7917 10.7387C23.8649 11.1101 24.8989 11.5694 25.8822 12.1422C26.2321 12.3474 26.4666 12.6348 26.5566 13.0335C26.5761 13.1293 26.582 13.227 26.5937 13.3248Z" fill="white"/>
<path fill-rule="evenodd" clip-rule="evenodd" d="M13.4832 16.5598C11.8295 16.5676 10.1348 16.7709 8.4791 17.2635C8.20934 17.3437 7.93959 17.3495 7.67374 17.242C7.2437 17.0681 6.96417 16.6361 6.97981 16.1806C6.99545 15.7056 7.28475 15.2912 7.74412 15.1505C8.2113 15.0078 8.68435 14.8846 9.1613 14.7791C10.3341 14.5191 11.5226 14.3803 12.7228 14.3353C15.307 14.2376 17.8306 14.5718 20.2936 15.3616C21.5387 15.7603 22.7292 16.2822 23.8551 16.9527C23.9118 16.986 23.9665 17.0192 24.0232 17.0544C24.6096 17.4121 24.68 18.1353 24.4005 18.5947C24.0799 19.1205 23.4153 19.2847 22.8621 18.972C22.5493 18.796 22.2424 18.6123 21.9238 18.4501C20.4617 17.7053 18.9116 17.2225 17.3028 16.9175C16.0615 16.6791 14.8105 16.5637 13.4832 16.5598Z" fill="white"/>
<path fill-rule="evenodd" clip-rule="evenodd" d="M13.7413 19.0131C15.6452 19.0326 17.5081 19.2906 19.3162 19.9005C20.3131 20.2367 21.2651 20.6726 22.1701 21.2102C22.2483 21.2571 22.3285 21.3021 22.4008 21.3568C22.7663 21.6344 22.8602 22.1348 22.6256 22.5316C22.3969 22.9147 21.9141 23.0692 21.5016 22.8874C21.4195 22.8502 21.3413 22.8014 21.2631 22.7544C19.7306 21.8455 18.0769 21.2825 16.3176 21.0128C15.2386 20.8466 14.1537 20.7899 13.065 20.8329C11.6556 20.8877 10.2638 21.0831 8.88767 21.3881C8.74888 21.4193 8.60619 21.4467 8.46349 21.4487C8.03736 21.4526 7.67768 21.1515 7.6034 20.7411C7.52326 20.3071 7.73828 19.9005 8.13705 19.7402C8.2211 19.707 8.31102 19.6855 8.39898 19.664C9.52491 19.4118 10.6626 19.2203 11.812 19.1225C12.4531 19.0697 13.0982 19.0482 13.7413 19.0131Z" fill="white"/>
</svg>
