<svg width="32" height="32" viewBox="0 0 32 32" fill="none" xmlns="http://www.w3.org/2000/svg">
<circle cx="16" cy="16" r="16" fill="#0073B0"/>
<path d="M12.8247 12.1053H9.52344V22.0191H12.8247V12.1053Z" fill="white"/>
<path d="M23.659 13.0109C22.9655 12.2539 22.0483 11.8753 20.9079 11.8753C20.4878 11.8753 20.1059 11.927 19.7623 12.0304C19.4189 12.1338 19.1288 12.2788 18.892 12.4656C18.6553 12.6524 18.4668 12.8257 18.3269 12.9857C18.1938 13.1377 18.0636 13.3147 17.9367 13.515V12.1053H14.6452L14.6553 12.5855C14.6621 12.9057 14.6654 13.8927 14.6654 15.5466C14.6654 17.2007 14.6587 19.3581 14.6453 22.0192H17.9367V16.4869C17.9367 16.1469 17.9731 15.8768 18.0466 15.6766C18.1868 15.3363 18.3983 15.0513 18.6819 14.8213C18.9655 14.5911 19.3172 14.476 19.7375 14.476C20.3109 14.476 20.7329 14.6744 21.003 15.0713C21.2731 15.468 21.4081 16.0166 21.4081 16.7169V22.0189H24.6994V16.337C24.6992 14.8763 24.3527 13.7676 23.659 13.0109Z" fill="white"/>
<path d="M11.1941 7.33335C10.6406 7.33335 10.1921 7.4952 9.84856 7.81858C9.50503 8.14203 9.33337 8.55038 9.33337 9.04402C9.33337 9.53076 9.50009 9.93771 9.83356 10.2644C10.1669 10.5912 10.6072 10.7546 11.154 10.7546H11.174C11.7343 10.7546 12.1862 10.5913 12.5297 10.2644C12.8731 9.93771 13.0414 9.5309 13.0348 9.04402C13.0282 8.55042 12.858 8.14203 12.5246 7.81858C12.1913 7.49506 11.7476 7.33335 11.1941 7.33335Z" fill="white"/>
</svg>
