<svg width="32" height="32" viewBox="0 0 32 32" fill="none" xmlns="http://www.w3.org/2000/svg">
<circle cx="16" cy="16" r="16" fill="url(#paint0_linear)"/>
<path d="M4 20.102C4 20.3883 4.10797 20.6049 4.32388 20.7516C4.53979 20.8984 4.77059 20.9503 5.01629 20.9073C5.24708 20.8644 5.40902 20.7856 5.50211 20.6711C5.59517 20.5566 5.64172 20.3668 5.64172 20.102V16.9879C5.64172 16.766 5.56169 16.578 5.4016 16.4241C5.24155 16.2702 5.04611 16.1933 4.81529 16.1933C4.59193 16.1933 4.40021 16.2702 4.24013 16.4241C4.08005 16.578 4 16.7659 4 16.9879V20.102ZM6.56864 21.4335C6.56864 21.6412 6.64496 21.7968 6.79758 21.9007C6.95022 22.0045 7.14567 22.0564 7.3839 22.0564C7.62959 22.0564 7.82874 22.0044 7.98138 21.9007C8.134 21.7969 8.21033 21.6412 8.21033 21.4335V14.1745C8.21033 13.9597 8.13027 13.7754 7.97022 13.6215C7.81014 13.4676 7.6147 13.3906 7.3839 13.3906C7.16054 13.3906 6.9688 13.4676 6.80875 13.6215C6.64866 13.7754 6.56864 13.9597 6.56864 14.1745V21.4335ZM9.12611 21.7771C9.12611 21.9848 9.20428 22.1405 9.36063 22.2443C9.51698 22.3481 9.718 22.4 9.96373 22.4C10.202 22.4 10.3974 22.3481 10.55 22.2443C10.7027 22.1405 10.779 21.9848 10.779 21.7771V15.1517C10.779 14.9297 10.6989 14.74 10.5389 14.5825C10.3788 14.425 10.1871 14.3463 9.96373 14.3463C9.7329 14.3463 9.53561 14.425 9.37182 14.5825C9.20803 14.74 9.12613 14.9297 9.12613 15.1517V21.7771H9.12611ZM11.6947 21.8094C11.6947 22.2031 11.9702 22.4 12.5212 22.4C13.0721 22.4 13.3476 22.2031 13.3476 21.8094V11.0711C13.3476 10.4698 13.1577 10.1298 12.778 10.051C12.5323 9.99373 12.2903 10.0617 12.0521 10.255C11.8138 10.4483 11.6947 10.7203 11.6947 11.0711V21.8094H11.6947ZM14.3081 22.1208V10.4376C14.3081 10.0653 14.4235 9.84341 14.6543 9.77181C15.1531 9.65727 15.6482 9.6 16.1396 9.6C17.2787 9.6 18.3397 9.85772 19.3225 10.3732C20.3053 10.8886 21.1001 11.5919 21.7068 12.4832C22.3136 13.3745 22.6654 14.357 22.7622 15.4309C23.2164 15.2447 23.7003 15.1517 24.214 15.1517C25.2564 15.1517 26.148 15.506 26.8888 16.2148C27.6296 16.9235 28 17.7754 28 18.7705C28 19.7727 27.6296 20.6282 26.8888 21.3369C26.148 22.0456 25.2601 22.4 24.2252 22.4L14.5091 22.3893C14.442 22.3678 14.3918 22.3284 14.3583 22.2711C14.3248 22.2139 14.3081 22.1637 14.3081 22.1208Z" fill="white"/>
<defs>
<linearGradient id="paint0_linear" x1="16.0342" y1="0.87072" x2="16.0342" y2="31.3613" gradientUnits="userSpaceOnUse">
<stop stop-color="#FF8800"/>
<stop offset="1" stop-color="#FF3300"/>
</linearGradient>
</defs>
</svg>
