<svg width="32" height="32" viewBox="0 0 32 32" fill="none" xmlns="http://www.w3.org/2000/svg">
<circle cx="16" cy="16" r="16" fill="#4680C2"/>
<path d="M15.4449 21.9497H16.6802C16.6802 21.9497 17.0532 21.9078 17.244 21.6989C17.4193 21.507 17.4137 21.1467 17.4137 21.1467C17.4137 21.1467 17.3895 19.4597 18.1587 19.2112C18.9172 18.9664 19.891 20.8417 20.9231 21.5628C21.7036 22.1083 22.2967 21.9889 22.2967 21.9889L25.0566 21.9497C25.0566 21.9497 26.5003 21.859 25.8157 20.7037C25.7597 20.6093 25.4169 19.8491 23.7636 18.2871C22.0329 16.6523 22.2649 16.9168 24.3495 14.0889C25.619 12.3667 26.1265 11.3154 25.9679 10.8651C25.8168 10.4361 24.883 10.5495 24.883 10.5495L21.7755 10.569C21.7755 10.569 21.545 10.5371 21.3743 10.6411C21.2073 10.7428 21.1001 10.9804 21.1001 10.9804C21.1001 10.9804 20.608 12.313 19.9524 13.4464C18.5687 15.8378 18.0153 15.9644 17.7891 15.8157C17.2628 15.4695 17.3943 14.4255 17.3943 13.6835C17.3943 11.3659 17.7397 10.3996 16.7218 10.1494C16.384 10.0665 16.1352 10.0116 15.2713 10.0027C14.1625 9.99119 13.2242 10.0061 12.6928 10.2711C12.3393 10.4473 12.0665 10.8399 12.2327 10.8625C12.4381 10.8903 12.9031 10.9902 13.1497 11.3317C13.4683 11.7727 13.4571 12.7629 13.4571 12.7629C13.4571 12.7629 13.6401 15.4911 13.0298 15.8299C12.611 16.0623 12.0363 15.5878 10.8027 13.4182C10.1707 12.3069 9.69336 11.0783 9.69336 11.0783C9.69336 11.0783 9.60145 10.8487 9.43728 10.7259C9.23816 10.577 8.95992 10.5298 8.95992 10.5298L6.00692 10.5494C6.00692 10.5494 5.5637 10.562 5.40085 10.7582C5.25596 10.9328 5.38928 11.2937 5.38928 11.2937C5.38928 11.2937 7.70101 16.7986 10.3188 19.5728C12.7194 22.1166 15.4449 21.9497 15.4449 21.9497Z" fill="white"/>
</svg>
