<svg width="32" height="32" viewBox="0 0 32 32" fill="none" xmlns="http://www.w3.org/2000/svg">
<path fill-rule="evenodd" clip-rule="evenodd" d="M16 32C7.16344 32 0 24.8366 0 16C0 7.16344 7.16344 0 16 0C24.8366 0 32 7.16344 32 16C32 24.8366 24.8366 32 16 32Z" fill="white"/>
<path d="M18.5153 7.7132C17.7955 5.79909 16.855 4.65644 15.9994 4.65644C15.1438 4.65644 14.2034 5.79919 13.4836 7.7132C13.1977 8.47362 12.9561 9.32262 12.7624 10.2376H19.2365C19.0427 9.32262 18.8012 8.47362 18.5153 7.7132Z" fill="black"/>
<path d="M12.748 21.6953C12.9441 22.6367 13.1904 23.5095 13.4835 24.2891C14.2033 26.2032 15.1438 27.3458 15.9994 27.3458C16.8549 27.3458 17.7954 26.2031 18.5152 24.2891C18.8083 23.5095 19.0546 22.6367 19.2507 21.6953H12.748Z" fill="black"/>
<path d="M25.0503 6.91625C22.894 4.75186 20.1042 3.45519 17.1002 3.2002C17.6907 3.75375 18.2276 4.36276 18.696 5.02362C19.1421 5.65295 19.6386 6.44459 19.916 7.18228C20.2604 8.09763 20.5444 9.12726 20.7635 10.2375H27.4462C26.8388 9.02503 26.0346 7.90432 25.0503 6.91625Z" fill="black"/>
<path d="M20.7775 21.6951C20.7753 21.7066 20.773 21.7179 20.7708 21.7292C20.4588 23.321 19.898 24.853 19.1249 26.2776L19.0896 26.3426C18.5867 27.2692 17.9263 28.1004 17.1381 28.7985C20.1276 28.536 22.9034 27.2409 25.0503 25.086C26.0531 24.079 26.8687 22.9346 27.4802 21.6951H20.7775Z" fill="black"/>
<path d="M12.9813 26.4454L12.7826 26.086C12.147 24.9365 11.667 23.7057 11.3752 22.4242C11.3209 22.1854 11.2697 21.9423 11.2216 21.6953H4.51892C5.13037 22.9348 5.94552 24.0792 6.94832 25.0862C9.09917 27.2446 11.8795 28.5402 14.8744 28.8002C14.1131 28.1306 13.4726 27.3339 12.9813 26.4454Z" fill="black"/>
<path d="M6.94832 6.91636C5.96397 7.90438 5.16032 9.02514 4.55237 10.2376H11.2351C11.4542 9.12732 11.7382 8.09775 12.0826 7.1824C12.3155 6.5634 12.7165 5.85065 13.086 5.25539C13.5663 4.48167 14.1663 3.79005 14.8614 3.20332C11.8715 3.46635 9.09572 4.76095 6.94832 6.91636Z" fill="black"/>
<path d="M2.39941 13.5742L5.15512 18.8002L6.86159 15.8826L8.61417 18.8002L11.3583 13.5742H9.53658L8.41816 16.0964L6.86159 13.2002L5.35113 16.0857L4.23271 13.5742H2.39941Z" fill="black"/>
<path d="M11.5199 13.5742L14.2757 18.8002L15.9821 15.8826L17.7347 18.8002L20.4789 13.5742H18.6571L17.5387 16.0964L15.9821 13.2002L14.4717 16.0857L13.3532 13.5742H11.5199Z" fill="black"/>
<path d="M20.6405 13.5742L23.3962 18.8002L25.1027 15.8826L26.8552 18.8002L29.5994 13.5742H27.7777L26.6592 16.0964L25.1027 13.2002L23.5922 16.0857L22.4738 13.5742H20.6405Z" fill="black"/>
</svg>
