<svg id="Layer_1" data-name="Layer 1" xmlns="http://www.w3.org/2000/svg" viewBox="0 0 227.48 75.39"><defs><style>.cls-1,.cls-2{fill:#14274e;}.cls-2{font-size:18px;font-family:Calibri;}.cls-3{letter-spacing:-0.01em;}.cls-4{letter-spacing:0em;}</style></defs><title>arrow</title><path class="cls-1" d="M416.65,276.08a1,1,0,1,0,.71-1.87Zm-63.14,8.56-.5-.87Zm-35.19,52.73a1,1,0,0,0,1.42,0l6.16-6.56a1,1,0,0,0,0-1.42,1,1,0,0,0-1.41,0L319,335.23l-5.83-5.48a1,1,0,0,0-1.37,1.46Zm93.6-64.65a1,1,0,0,0-.41,2Zm-11.17.64a1,1,0,1,0,.09-2Zm-11-1.69a1,1,0,0,0-.9,1.1,1,1,0,0,0,1.09.89Zm-10.52,3.78a1,1,0,0,0-.46-1.95Zm-11.1,1.26a1,1,0,0,0,.69,1.87Zm-9.28,6.22a1,1,0,0,0-.9-1.79Zm-10.51,3.73A1,1,0,0,0,348,288a1,1,0,0,0,1.39.29Zm-7.42,8.16a1,1,0,0,0,.08-1.41,1,1,0,0,0-1.41-.09Zm-9,6.42a1,1,0,1,0,1.55,1.27Zm-4.51,10.07a1,1,0,0,0-1.74-1Zm-6.31,9.06A1,1,0,0,0,323,321Zm-.67,11a1,1,0,0,0-.85-1.14,1,1,0,0,0-1.13.85ZM417,275.14l.35-.93h0l-.07,0-.28-.1-1.05-.34c-.92-.28-2.27-.64-4-1l-.41,2c1.67.35,3,.7,3.84,1l1,.31.25.09.05,0h0Zm-16.17-3.78a78,78,0,0,0-11.12.31l.19,2a77,77,0,0,1,10.84-.3Zm-22.1,2.14a90.44,90.44,0,0,0-10.64,3.21l.69,1.87a88.87,88.87,0,0,1,10.41-3.13Zm-20.82,7.64q-2.43,1.22-4.91,2.63l1,1.74q2.43-1.39,4.82-2.58ZM353,283.77q-2.46,1.41-4.7,2.89l1.1,1.67q2.19-1.44,4.59-2.82Zm-13.45,9.55a68.92,68.92,0,0,0-7.66,7.92l1.55,1.27a66.57,66.57,0,0,1,7.44-7.69Zm-13.91,17a61.19,61.19,0,0,0-4.57,10L323,321a58.55,58.55,0,0,1,4.42-9.72Zm-7.22,20.76c-.24,1.72-.35,3.11-.39,4.06,0,.48,0,.86,0,1.11v.4h0l1,0,1,0h0v-.32c0-.23,0-.58,0-1,.05-.9.15-2.22.38-3.87ZM416.29,277a2,2,0,0,0,1.43-3.73Zm-62.78,7.63-1-1.74ZM317.64,338.1a2,2,0,0,0,2.82-.09l12.32-13.12a2,2,0,1,0-2.91-2.74l-10.95,11.66-11.67-10.95a2,2,0,0,0-2.74,2.92Zm94.49-66.36a2,2,0,0,0-.83,3.92Zm-11.42,2.62a2,2,0,0,0,.18-4Zm-11.09-3.68a2,2,0,1,0,.39,4Zm-10.19,5.74a2,2,0,1,0-.92-3.89Zm-11.68-.65a2,2,0,0,0,1.39,3.75Zm-8.49,8.05a2,2,0,1,0-1.79-3.57Zm-11.5,2a2,2,0,0,0,2.2,3.34Zm-6.21,9.75a2,2,0,0,0-2.65-3Zm-10.42,5a2,2,0,1,0,3.09,2.54Zm-2.87,11.21a2,2,0,0,0-.76-2.73,2,2,0,0,0-2.72.75ZM320.13,320a2,2,0,0,0,3.78,1.32Zm1.27,11.48a2,2,0,1,0-4-.57ZM417,275.14l.71-1.86h0l-.09,0-.29-.1c-.25-.09-.62-.21-1.09-.35-1-.29-2.33-.67-4.09-1l-.83,3.92c1.65.34,2.91.69,3.76.95.42.12.74.23.95.3l.22.08,0,0h0Zm-16.12-4.78a78.66,78.66,0,0,0-11.27.32l.39,4a75,75,0,0,1,10.7-.3Zm-22.38,2.17a89.23,89.23,0,0,0-10.76,3.24l1.39,3.75a88.25,88.25,0,0,1,10.29-3.1Zm-21,7.72q-2.46,1.23-5,2.65l2,3.48q2.4-1.38,4.76-2.56Zm-5,2.65c-1.66,1-3.24,1.93-4.75,2.92l2.2,3.34c1.44-1,3-1.87,4.54-2.78Zm-13.61,9.67a70.86,70.86,0,0,0-7.77,8l3.09,2.54a67.08,67.08,0,0,1,7.33-7.57Zm-14.12,17.26A62.84,62.84,0,0,0,320.13,320l3.78,1.32a58.23,58.23,0,0,1,4.35-9.55ZM317.44,331c-.25,1.75-.36,3.17-.4,4.16,0,.49,0,.88,0,1.15v.43h0l2-.06,2-.06h0v-.29c0-.21,0-.55,0-1,0-.88.14-2.17.37-3.78Z" transform="translate(-303.88 -263.25)"/><text class="cls-2" transform="translate(126.78 14.69)">S<tspan class="cls-3" x="8.27" y="0">t</tspan><tspan x="14.08" y="0">art n</tspan><tspan class="cls-4" x="48.53" y="0">o</tspan><tspan x="57.96" y="0">w</tspan></text></svg>