<svg width="46" height="45" viewBox="0 0 46 45" fill="none" xmlns="http://www.w3.org/2000/svg">
<path fill-rule="evenodd" clip-rule="evenodd" d="M34.7063 16.4566L34.7055 16.436C34.694 16.1822 34.6863 15.9137 34.6817 15.6149C34.6601 14.1579 33.5019 12.9527 32.0447 12.8713C29.0065 12.7017 26.6562 11.711 24.648 9.75363L24.6309 9.7373C23.9759 9.13672 22.9878 9.13672 22.3326 9.7373L22.3154 9.75363C20.3072 11.711 17.9569 12.7017 14.9187 12.8715C13.4617 12.9527 12.3033 14.1579 12.2817 15.6151C12.2773 15.9119 12.2694 16.1804 12.258 16.436L12.2567 16.4838C12.1977 19.5819 12.1243 23.4376 13.4142 26.9373C14.1234 28.8618 15.1976 30.5347 16.6066 31.9098C18.2114 33.4759 20.3133 34.7192 22.8539 35.6051C22.9366 35.6339 23.0225 35.6573 23.11 35.6748C23.2333 35.6994 23.3575 35.7117 23.4817 35.7117C23.6059 35.7117 23.7303 35.6994 23.8535 35.6748C23.941 35.6573 24.0275 35.6337 24.1105 35.6047C26.6481 34.7172 28.7479 33.4733 30.3512 31.9074C31.7596 30.5319 32.8338 28.8586 33.5436 26.9336C34.8384 23.4235 34.7652 19.5605 34.7063 16.4566ZM32.0889 26.3972C30.7284 30.0857 27.9513 32.6189 23.5989 34.141C23.5833 34.1463 23.5668 34.1509 23.5497 34.1543C23.5047 34.1632 23.4589 34.1632 23.4134 34.1541C23.3964 34.1507 23.3799 34.1463 23.3646 34.141C19.0075 32.6217 16.2286 30.09 14.8691 26.4012C13.6803 23.1753 13.7476 19.6359 13.8071 16.5135L13.8075 16.4961C13.8196 16.2278 13.8277 15.9467 13.8321 15.6379C13.8418 14.9909 14.3571 14.4557 15.0052 14.4196C16.7245 14.3236 18.2349 13.9914 19.6228 13.4039C21.0088 12.8172 22.2398 11.9902 23.3858 10.8758C23.444 10.8266 23.5196 10.8264 23.5777 10.8758C24.7238 11.9902 25.9548 12.8172 27.3407 13.4039C28.7285 13.9914 30.2389 14.3236 31.9584 14.4196C32.6066 14.4557 33.1219 14.9909 33.1314 15.6381C33.136 15.9486 33.1441 16.2296 33.1562 16.4961C33.2154 19.6222 33.2812 23.1644 32.0889 26.3972ZM23.4814 15.9143C19.85 15.9143 16.8959 18.8686 16.8959 22.4998C16.8959 26.1311 19.85 29.0854 23.4814 29.0854C27.1125 29.0854 30.0668 26.1311 30.0668 22.4998C30.0668 18.8686 27.1125 15.9143 23.4814 15.9143ZM23.4814 27.5347C20.705 27.5347 18.4465 25.2761 18.4465 22.4998C18.4465 19.7234 20.705 17.4649 23.4814 17.4649C26.2575 17.4649 28.5161 19.7234 28.5161 22.4998C28.5161 25.2761 26.2575 27.5347 23.4814 27.5347ZM22.3153 23.5139L25.374 20.4552C25.6768 20.1522 26.1677 20.1522 26.4706 20.4552C26.7732 20.7578 26.7732 21.2487 26.4706 21.5515L22.8634 25.1586C22.712 25.3101 22.5136 25.3857 22.3153 25.3857C22.1169 25.3857 21.9185 25.3101 21.7671 25.1586L20.3885 23.7801C20.0859 23.4775 20.0859 22.9865 20.3885 22.6837C20.6913 22.3809 21.1822 22.3809 21.485 22.6837L22.3153 23.5139Z" fill="#EDC431"/>
</svg>
