<svg width="46" height="45" viewBox="0 0 46 45" fill="none" xmlns="http://www.w3.org/2000/svg">
<path fill-rule="evenodd" clip-rule="evenodd" d="M36.5784 11.3347C36.5216 10.292 35.6922 9.46272 34.6494 9.40581C32.5453 9.29086 28.4279 9.40268 24.4908 11.4391C22.4837 12.4772 20.361 14.2374 18.667 16.2682C18.6549 16.2828 18.6429 16.2974 18.6309 16.312L18.6051 16.3435L14.7607 16.6404C14.1279 16.6894 13.5643 17.021 13.2143 17.5504L10.5915 21.5174C10.326 21.9189 10.2838 22.4213 10.4785 22.8614C10.6732 23.3015 11.0734 23.6082 11.5489 23.6819L14.7879 24.1836L14.7859 24.1946C14.7751 24.2539 14.7643 24.3131 14.7544 24.3724C14.6466 25.0174 14.8603 25.6806 15.3262 26.1464L19.8378 30.658C20.224 31.0443 20.7459 31.2572 21.2807 31.2572C21.3908 31.2572 21.5016 31.2481 21.6118 31.2297C21.671 31.2198 21.7302 31.2091 21.7894 31.1984L21.7897 31.1983L21.8007 31.1963L22.3023 34.4353C22.376 34.9109 22.6827 35.311 23.1227 35.5057C23.3058 35.5867 23.4996 35.6267 23.6925 35.6267C23.9633 35.6267 24.2323 35.5478 24.4667 35.3928L28.4338 32.77C28.9632 32.4199 29.2948 31.8563 29.3436 31.2235L29.6406 27.3791L29.6724 27.3531C29.6869 27.3412 29.7015 27.3293 29.7159 27.3173C31.7468 25.6233 33.507 23.5006 34.5451 21.4935C36.5816 17.5562 36.6932 13.4387 36.5784 11.3347ZM27.5855 31.4868L23.7908 33.9957L23.3018 30.8391C24.9056 30.3676 26.4922 29.6123 28.0036 28.6006L27.8102 31.105C27.7981 31.2612 27.7162 31.4004 27.5855 31.4868ZM20.9254 29.5704L16.4138 25.0588C16.2987 24.9436 16.2455 24.7818 16.2716 24.626C16.4057 23.824 16.6141 23.0604 16.8721 22.3412L23.6415 29.1106C22.7777 29.4201 22.0039 29.6046 21.3582 29.7126C21.2021 29.7386 21.0405 29.6855 20.9254 29.5704ZM14.8792 18.1741L17.3836 17.9806C16.3717 19.4921 15.6165 21.0786 15.1449 22.6824L11.9884 22.1935L14.4974 18.3987C14.5838 18.268 14.723 18.1861 14.8792 18.1741ZM28.7308 26.136C27.4883 27.1724 26.2822 27.922 25.1705 28.4644L17.5195 20.8134C18.2301 19.3622 19.0972 18.1538 19.8482 17.2535C21.4159 15.3741 23.3656 13.7528 25.1975 12.8053C28.8109 10.9362 32.618 10.8356 34.5657 10.9416C34.8235 10.9557 35.0286 11.1607 35.0426 11.4186C35.1488 13.3663 35.0479 17.1733 33.1789 20.7868C32.2314 22.6186 30.6101 24.5683 28.7308 26.136ZM28.34 21.4879C29.3245 21.4878 30.3094 21.113 31.059 20.3635C31.7853 19.6372 32.1853 18.6715 32.1853 17.6444C32.1853 16.6173 31.7853 15.6516 31.059 14.9254C29.5597 13.426 27.1201 13.4261 25.6209 14.9254C24.8946 15.6516 24.4946 16.6173 24.4946 17.6444C24.4946 18.6715 24.8946 19.6372 25.6209 20.3635C26.3706 21.1132 27.3551 21.488 28.34 21.4879ZM26.7085 16.013C27.1582 15.5631 27.749 15.3383 28.3399 15.3383C28.9307 15.3383 29.5215 15.5631 29.9713 16.013C30.4071 16.4487 30.647 17.0281 30.647 17.6444C30.647 18.2606 30.4071 18.84 29.9713 19.2758C29.0718 20.1754 27.608 20.1753 26.7084 19.2758C26.2726 18.84 26.0326 18.2607 26.0326 17.6444C26.0326 17.0282 26.2727 16.4487 26.7085 16.013ZM11.6859 30.7836C11.5358 30.9339 11.3389 31.0089 11.1421 31.0089C10.9452 31.0089 10.7484 30.9338 10.5983 30.7836C10.2979 30.4833 10.2979 29.9964 10.5983 29.696L13.1092 27.185C13.4096 26.8847 13.8966 26.8847 14.1969 27.185C14.4972 27.4854 14.4972 27.9723 14.1969 28.2727L11.6859 30.7836ZM16.498 29.4862C16.1977 29.1858 15.7107 29.1858 15.4103 29.4862L10.5828 34.3138C10.2825 34.6141 10.2825 35.1011 10.5828 35.4014C10.733 35.5516 10.9298 35.6267 11.1266 35.6267C11.3234 35.6267 11.5203 35.5516 11.6704 35.4014L16.4979 30.5738C16.7983 30.2735 16.7983 29.7866 16.498 29.4862ZM15.2005 34.2983L17.7115 31.7873C18.0118 31.4869 18.4988 31.4869 18.7991 31.7873C19.0995 32.0876 19.0995 32.5746 18.7991 32.8749L16.2881 35.3859C16.138 35.5361 15.9411 35.6112 15.7443 35.6112C15.5475 35.6112 15.3507 35.5361 15.2005 35.3859C14.9002 35.0855 14.9002 34.5986 15.2005 34.2983Z" fill="#EDC431"/>
</svg>
