<svg width="32" height="32" viewBox="0 0 32 32" fill="none" xmlns="http://www.w3.org/2000/svg">
<circle cx="16" cy="16" r="16" fill="#55ACEE"/>
<path d="M25.3333 10.4029C24.6465 10.6973 23.9084 10.8964 23.1337 10.9859C23.9245 10.5276 24.5317 9.80201 24.8176 8.93743C24.0777 9.3617 23.2581 9.66985 22.3857 9.83594C21.6871 9.11633 20.6918 8.66665 19.5903 8.66665C17.4753 8.66665 15.7605 10.3244 15.7605 12.3692C15.7605 12.6594 15.7945 12.942 15.8597 13.213C12.6769 13.0586 9.85499 11.5845 7.96613 9.34441C7.63648 9.89126 7.44763 10.5273 7.44763 11.2058C7.44763 12.4904 8.12379 13.6237 9.15138 14.2877C8.52356 14.2685 7.93309 14.1019 7.4167 13.8246C7.41642 13.84 7.41642 13.8555 7.41642 13.8711C7.41642 15.6651 8.73652 17.1616 10.4885 17.5017C10.1671 17.5863 9.82877 17.6316 9.47946 17.6316C9.2327 17.6316 8.99277 17.6084 8.75898 17.5652C9.24629 19.0362 10.6606 20.1067 12.3364 20.1366C11.0258 21.1296 9.37445 21.7215 7.58022 21.7215C7.27113 21.7215 6.96626 21.704 6.66666 21.6698C8.36147 22.7204 10.3745 23.3333 12.5372 23.3333C19.5814 23.3333 23.4334 17.6914 23.4334 12.7985C23.4334 12.638 23.4297 12.4783 23.4223 12.3196C24.1705 11.7975 24.8199 11.1454 25.3333 10.4029Z" fill="white"/>
</svg>
